<svg class="header__logo" width="220px" height="48px" viewBox="0 0 220 48" version="1.1" xmlns="http://www.w3.org/2000/svg" xmlns:xlink="http://www.w3.org/1999/xlink">
                <g id="pici-logo" stroke="none" stroke-width="1" fill="none" fill-rule="evenodd">
                    <g transform="translate(0.000000, -0.000000)" fill="#0A0B09">
                        <g id="logo-text">
                            <path d="M93.6637827,1.06060362 L92.3805231,5.15472837 L94.9811268,5.15472837 L93.6637827,1.06060362 Z M95.9726761,8.26792757 L95.2843461,6.13344064 L92.0777465,6.13344064 L91.4009256,8.26792757 L90.3398793,8.26792757 L93.0573441,0 L94.3162575,0 L97.0447887,8.26792757 L95.9726761,8.26792757 Z M118.176298,8.26792757 L115.785513,4.10430584 L114.386278,5.70273642 L114.386278,8.26792757 L113.33674,8.26792757 L113.33674,0 L114.386278,0 L114.386278,4.24507042 L118.106358,0 L119.388732,0 L116.520322,3.26503018 L119.400241,8.26792757 L118.176298,8.26792757 Z M138.967404,0.956136821 L137.171992,0.956136821 L137.171992,3.85995976 L138.967404,3.85995976 C139.947445,3.85995976 140.646398,3.46334004 140.646398,2.41380282 C140.646398,1.36426559 139.947445,0.956136821 138.967404,0.956136821 Z M140.62338,8.26792757 L139.060805,4.82760563 L137.171992,4.82760563 L137.171992,8.26792757 L136.133521,8.26792757 L136.133521,0 L138.967404,0 C139.935493,0 140.611429,0.267806841 141.066922,0.734808853 C141.463541,1.15400402 141.719839,1.69050302 141.719839,2.41380282 C141.719839,3.13665996 141.487002,3.62668008 141.08994,4.04631791 C140.845594,4.30350101 140.495453,4.50136821 140.098833,4.62929577 L141.754809,8.26792757 L140.62338,8.26792757 Z M82.6283702,0.944627767 L80.7165392,0.944627767 L80.7165392,4.11625755 L82.6398793,4.11625755 C83.7478471,4.11625755 84.424668,3.60366197 84.424668,2.49569416 C84.424668,1.44615694 83.6548893,0.944627767 82.6283702,0.944627767 Z M84.7973843,4.33802817 C84.3542857,4.78112676 83.5734406,5.06132797 82.66334,5.06132797 L80.7165392,5.06132797 L80.7165392,8.26792757 L79.6780684,8.26792757 L79.6780684,0 L82.651831,0 C83.6199195,0 84.4127163,0.303219316 84.8558149,0.781287726 C85.2524346,1.21287726 85.4972233,1.77239437 85.4972233,2.49569416 C85.4972233,3.3 85.2404829,3.89492958 84.7973843,4.33802817 Z M105.024547,0.956136821 L103.228692,0.956136821 L103.228692,3.85995976 L105.024547,3.85995976 C106.004588,3.85995976 106.703541,3.46334004 106.703541,2.41380282 C106.703541,1.36426559 106.004588,0.956136821 105.024547,0.956136821 Z M106.68008,8.26792757 L105.117948,4.82760563 L103.228692,4.82760563 L103.228692,8.26792757 L102.190221,8.26792757 L102.190221,0 L105.024547,0 C105.992193,0 106.668571,0.267806841 107.123622,0.734808853 C107.520241,1.15400402 107.776982,1.69050302 107.776982,2.41380282 C107.776982,3.13665996 107.543702,3.62668008 107.147082,4.04631791 C106.902294,4.30350101 106.552153,4.50136821 106.155533,4.62929577 L107.811952,8.26792757 L106.68008,8.26792757 Z M124.804185,8.26792757 L124.804185,0 L130.273642,0 L130.273642,0.956136821 L125.841771,0.956136821 L125.841771,3.47529175 L129.188692,3.47529175 L129.188692,4.45488934 L125.841771,4.45488934 L125.841771,7.31179074 L130.273642,7.31179074 L130.273642,8.26792757 L124.804185,8.26792757 Z M95.2197183,21.4063984 L91.9077666,14.7594769 L91.9077666,21.4063984 L90.8936419,21.4063984 L90.8936419,13.1384708 L92.1884105,13.1384708 L95.4879678,19.8203622 L95.4879678,13.1384708 L96.4910262,13.1384708 L96.4910262,21.4063984 L95.2197183,21.4063984 Z M116.905433,14.1061167 L116.905433,21.4063984 L115.843944,21.4063984 L115.843944,14.1061167 L113.033521,14.1061167 L113.033521,13.1384708 L119.703903,13.1384708 L119.703903,14.1061167 L116.905433,14.1061167 Z M139.481328,14.1061167 L139.481328,21.4063984 L138.419396,21.4063984 L138.419396,14.1061167 L135.609416,14.1061167 L135.609416,13.1384708 L142.279356,13.1384708 L142.279356,14.1061167 L139.481328,14.1061167 Z M150.465392,21.5577867 C148.529215,21.5577867 147.573521,20.2519517 147.573521,18.3981087 L147.573521,13.1384708 L148.611107,13.1384708 L148.611107,18.4096177 C148.611107,19.6694165 149.112193,20.5781891 150.476901,20.5781891 C151.829658,20.5781891 152.331187,19.6574648 152.331187,18.4096177 L152.331187,13.1384708 L153.369215,13.1384708 L153.369215,18.3981087 C153.369215,20.2634608 152.412193,21.5577867 150.465392,21.5577867 Z M162.520684,14.1061167 L162.520684,21.4063984 L161.459638,21.4063984 L161.459638,14.1061167 L158.648773,14.1061167 L158.648773,13.1384708 L165.319598,13.1384708 L165.319598,14.1061167 L162.520684,14.1061167 Z M170.162254,21.4063984 L170.162254,13.1384708 L175.631268,13.1384708 L175.631268,14.0946076 L171.199839,14.0946076 L171.199839,16.6137626 L174.546318,16.6137626 L174.546318,17.5929175 L171.199839,17.5929175 L171.199839,20.4502616 L175.631268,20.4502616 L175.631268,21.4063984 L170.162254,21.4063984 Z M79.6780684,21.4063984 L79.6780684,20.543662 L82.0630986,20.543662 L82.0630986,13.9901408 L79.6780684,13.9901408 L79.6780684,13.1384708 L85.4746479,13.1384708 L85.4746479,13.9901408 L83.1126358,13.9901408 L83.1126358,20.543662 L85.4746479,20.543662 L85.4746479,21.4063984 L79.6780684,21.4063984 Z M79.6780684,47.6439437 L79.6780684,46.7807646 L82.0630986,46.7807646 L82.0630986,40.2268008 L79.6780684,40.2268008 L79.6780684,39.3755734 L85.4746479,39.3755734 L85.4746479,40.2268008 L83.1126358,40.2268008 L83.1126358,46.7807646 L85.4746479,46.7807646 L85.4746479,47.6439437 L79.6780684,47.6439437 Z M124.804185,21.4063984 L124.804185,20.543662 L127.188773,20.543662 L127.188773,13.9901408 L124.804185,13.9901408 L124.804185,13.1384708 L130.600765,13.1384708 L130.600765,13.9901408 L128.238753,13.9901408 L128.238753,20.543662 L130.600765,20.543662 L130.600765,21.4063984 L124.804185,21.4063984 Z M107.426841,20.7415292 C106.855372,21.3014889 105.980684,21.5577867 105.094487,21.5577867 C104.091429,21.5577867 103.310141,21.2899799 102.750624,20.7769416 C102.225634,20.2869215 101.887445,19.5760161 101.887445,18.7942857 L102.971952,18.7942857 C102.971952,19.2838632 103.204789,19.7738833 103.543421,20.1001207 C103.916579,20.4622133 104.511509,20.6016499 105.094487,20.6016499 C105.724386,20.6016499 106.236982,20.4737223 106.610584,20.1235815 C106.866881,19.8907445 107.029779,19.5990342 107.029779,19.155493 C107.029779,18.5140845 106.645553,17.9775855 105.665956,17.8266398 L104.394648,17.6278873 C103.15831,17.4415292 102.213682,16.7536419 102.213682,15.4358551 C102.213682,14.8179074 102.470423,14.2229779 102.913521,13.80334 C103.48499,13.266841 104.184829,12.9870825 105.048008,12.9870825 C105.852314,12.9870825 106.622093,13.2318712 107.170101,13.7564185 C107.671187,14.2344869 107.927928,14.8409256 107.951388,15.5403219 L106.866881,15.5403219 C106.843421,15.1330785 106.703541,14.7944467 106.470262,14.5261972 C106.155091,14.1645473 105.677465,13.9432193 105.036056,13.9432193 C104.441127,13.9432193 103.963058,14.1180684 103.601851,14.5261972 C103.39159,14.7709859 103.28668,15.0392354 103.28668,15.4123944 C103.28668,16.1587123 103.88161,16.4969014 104.499557,16.5787928 C104.966117,16.6372233 105.385755,16.718672 105.840805,16.7886117 C107.217022,16.9869215 108.114728,17.8266398 108.114728,19.1324748 C108.114728,19.8203622 107.83497,20.3453521 107.426841,20.7415292 Z M95.1267606,27.7421328 C94.7301408,27.3335614 94.2525151,27.1122334 93.6921127,27.1122334 C93.1325956,27.1122334 92.6540845,27.3335614 92.2579074,27.7421328 C91.5819718,28.4419718 91.6045473,29.549497 91.6045473,30.4122334 C91.6045473,31.2754125 91.5819718,32.3833803 92.2579074,33.0827767 C92.6540845,33.4913481 93.1325956,33.7126761 93.6921127,33.7126761 C94.2525151,33.7126761 94.7301408,33.4913481 95.1267606,33.0827767 C95.8031388,32.3833803 95.7796781,31.2754125 95.7796781,30.4122334 C95.7796781,29.549497 95.8031388,28.4419718 95.1267606,27.7421328 Z M95.8496177,33.8060765 C95.2546881,34.389497 94.5203219,34.7037827 93.6921127,34.7037827 C92.8643461,34.7037827 92.1299799,34.389497 91.5350503,33.8060765 C90.6373441,32.931831 90.5324346,31.7304628 90.5324346,30.4122334 C90.5324346,29.095332 90.6373441,27.8939638 91.5350503,27.0192757 C92.1299799,26.4362978 92.8643461,26.1215694 93.6921127,26.1215694 C94.5203219,26.1215694 95.2546881,26.4362978 95.8496177,27.0192757 C96.7477666,27.8939638 96.8526761,29.095332 96.8526761,30.4122334 C96.8526761,31.7304628 96.7477666,32.931831 95.8496177,33.8060765 Z M138.915171,27.3335614 L137.632354,31.4272435 L140.2334,31.4272435 L138.915171,27.3335614 Z M141.224064,34.5404427 L140.536177,32.4063984 L137.329135,32.4063984 L136.653199,34.5404427 L135.591268,34.5404427 L138.308732,26.2729577 L139.568531,26.2729577 L142.297062,34.5404427 L141.224064,34.5404427 Z M151.998753,34.5404427 L148.686358,27.8939638 L148.686358,34.5404427 L147.672233,34.5404427 L147.672233,26.2729577 L148.966559,26.2729577 L152.266559,32.9548491 L152.266559,26.2729577 L153.27006,26.2729577 L153.27006,34.5404427 L151.998753,34.5404427 Z M162.071831,34.7037827 C161.244064,34.7037827 160.520765,34.389497 159.937344,33.8180282 C159.004668,32.9083702 158.922777,31.6370624 158.922777,30.4122334 C158.922777,29.1882897 159.004668,27.9169819 159.937344,27.0077666 C160.520765,26.4362978 161.244064,26.1215694 162.071831,26.1215694 C163.669376,26.1215694 164.963702,27.2406036 165.033642,28.861167 L163.949577,28.861167 C163.926117,28.407002 163.727364,27.9634608 163.471066,27.6952113 C163.132435,27.322495 162.6433,27.1007243 162.071831,27.1007243 C161.511871,27.1007243 161.057264,27.3335614 160.672596,27.7306237 C159.995775,28.4304628 159.995775,29.5025755 159.995775,30.4122334 C159.995775,31.322334 159.995775,32.395332 160.672596,33.0947284 C161.057264,33.4913481 161.511871,33.7246278 162.071831,33.7246278 C163.120926,33.7246278 163.949577,32.9668008 163.973038,31.9048692 L165.045594,31.9048692 C164.975211,33.5148089 163.681328,34.7037827 162.071831,34.7037827 Z M170.162254,34.5404427 L170.162254,26.2729577 L175.631268,26.2729577 L175.631268,27.2290946 L171.199839,27.2290946 L171.199839,29.7478068 L174.546318,29.7478068 L174.546318,30.7274044 L171.199839,30.7274044 L171.199839,33.5847485 L175.631268,33.5847485 L175.631268,34.5404427 L170.162254,34.5404427 Z M80.7160966,27.2290946 L80.7160966,29.9230986 L84.2843461,29.9230986 L84.2843461,30.9026962 L80.7160966,30.9026962 L80.7160966,34.5404427 L79.6780684,34.5404427 L79.6780684,26.2729577 L85.2170221,26.2729577 L85.2170221,27.2290946 L80.7160966,27.2290946 Z M105.024547,27.2290946 L103.228692,27.2290946 L103.228692,30.1324748 L105.024547,30.1324748 C106.004588,30.1324748 106.703541,29.7362978 106.703541,28.6867606 C106.703541,27.6372233 106.004588,27.2290946 105.024547,27.2290946 Z M106.68008,34.5404427 L105.117948,31.1005634 L103.228692,31.1005634 L103.228692,34.5404427 L102.190221,34.5404427 L102.190221,26.2729577 L105.024547,26.2729577 C105.992636,26.2729577 106.668571,26.5407646 107.123622,27.0077666 C107.520241,27.4269618 107.776982,27.9634608 107.776982,28.6867606 C107.776982,29.4100604 107.543702,29.8996378 107.147082,30.318833 C106.902294,30.5760161 106.552153,30.774326 106.155533,30.9026962 L107.811952,34.5404427 L106.68008,34.5404427 Z M127.653119,34.7037827 C126.825352,34.7037827 126.102495,34.389497 125.519517,33.8180282 C124.586398,32.9083702 124.50495,31.6370624 124.50495,30.4122334 C124.50495,29.1882897 124.586398,27.9169819 125.519517,27.0077666 C126.102495,26.4362978 126.825352,26.1215694 127.653119,26.1215694 C129.250664,26.1215694 130.545433,27.2406036 130.61493,28.861167 L129.530865,28.861167 C129.507404,28.407002 129.309095,27.9634608 129.052797,27.6952113 C128.714165,27.322495 128.22503,27.1007243 127.653119,27.1007243 C127.093159,27.1007243 126.638994,27.3335614 126.253883,27.7306237 C125.577062,28.4304628 125.577062,29.5025755 125.577062,30.4122334 C125.577062,31.322334 125.577062,32.395332 126.253883,33.0947284 C126.638994,33.4913481 127.093159,33.7246278 127.653119,33.7246278 C128.702656,33.7246278 129.530865,32.9668008 129.554326,31.9048692 L130.626881,31.9048692 C130.556942,33.5148089 129.262616,34.7037827 127.653119,34.7037827 Z M183.307364,27.2290946 L181.511952,27.2290946 L181.511952,30.1324748 L183.307364,30.1324748 C184.287404,30.1324748 184.986801,29.7362978 184.986801,28.6867606 C184.986801,27.6372233 184.287404,27.2290946 183.307364,27.2290946 Z M184.963783,34.5404427 L183.400765,31.1005634 L181.511952,31.1005634 L181.511952,34.5404427 L180.473924,34.5404427 L180.473924,26.2729577 L183.307364,26.2729577 C184.275895,26.2729577 184.951831,26.5407646 185.406881,27.0077666 C185.803501,27.4269618 186.059799,27.9634608 186.059799,28.6867606 C186.059799,29.4100604 185.826962,29.8996378 185.429899,30.318833 C185.185553,30.5760161 184.835412,30.774326 184.438793,30.9026962 L186.094769,34.5404427 L184.963783,34.5404427 Z M95.5928773,47.6439437 L95.5928773,41.124507 L94.158672,45.1367404 L93.2255533,45.1367404 L91.7913481,41.1479678 L91.7913481,47.6439437 L90.7887324,47.6439437 L90.7887324,39.3755734 L92.0715493,39.3755734 L93.7155734,43.9938028 L95.3250704,39.3755734 L96.5963783,39.3755734 L96.5963783,47.6439437 L95.5928773,47.6439437 Z M106.901851,47.6439437 L106.901851,41.124507 L105.467203,45.1367404 L104.534527,45.1367404 L103.099879,41.1479678 L103.099879,47.6439437 L102.097264,47.6439437 L102.097264,39.3755734 L103.38008,39.3755734 L105.024547,43.9938028 L106.634044,39.3755734 L107.904909,39.3755734 L107.904909,47.6439437 L106.901851,47.6439437 Z M116.362736,47.795332 C114.426559,47.795332 113.470865,46.4886117 113.470865,44.6352113 L113.470865,39.3755734 L114.508451,39.3755734 L114.508451,44.6467203 C114.508451,45.9060765 115.009537,46.8157344 116.374245,46.8157344 C117.727002,46.8157344 118.228531,45.8945674 118.228531,44.6467203 L118.228531,39.3755734 L119.266559,39.3755734 L119.266559,44.6352113 C119.266559,46.5005634 118.309537,47.795332 116.362736,47.795332 Z M129.275453,47.6439437 L125.963501,40.9965795 L125.963501,47.6439437 L124.948934,47.6439437 L124.948934,39.3755734 L126.24326,39.3755734 L129.54326,46.0579074 L129.54326,39.3755734 L130.546761,39.3755734 L130.546761,47.6439437 L129.275453,47.6439437 Z M140.378592,40.8447485 C139.981972,40.4370624 139.503903,40.2152918 138.944386,40.2152918 C138.384427,40.2152918 137.906358,40.4370624 137.509738,40.8447485 C136.83336,41.5450302 136.856821,42.6525553 136.856821,43.5152918 C136.856821,44.3784708 136.83336,45.4864386 137.509738,46.185835 C137.906358,46.5944064 138.384427,46.8157344 138.944386,46.8157344 C139.503903,46.8157344 139.981972,46.5944064 140.378592,46.185835 C141.05497,45.4864386 141.031952,44.3784708 141.031952,43.5152918 C141.031952,42.6525553 141.05497,41.5450302 140.378592,40.8447485 Z M141.101891,46.9091348 C140.506962,47.4921127 139.772153,47.806841 138.944386,47.806841 C138.11662,47.806841 137.381368,47.4921127 136.786881,46.9091348 C135.888732,46.0344467 135.784266,44.8330785 135.784266,43.5152918 C135.784266,42.1979477 135.888732,40.9965795 136.786881,40.122334 C137.381368,39.5389135 138.11662,39.2241851 138.944386,39.2241851 C139.772153,39.2241851 140.506962,39.5389135 141.101891,40.122334 C141.999598,40.9965795 142.104064,42.1979477 142.104064,43.5152918 C142.104064,44.8330785 141.999598,46.0344467 141.101891,46.9091348 Z M151.008089,40.343662 L151.008089,47.6439437 L149.9466,47.6439437 L149.9466,40.343662 L147.136177,40.343662 L147.136177,39.3755734 L153.806559,39.3755734 L153.806559,40.343662 L151.008089,40.343662 Z M163.733561,47.6439437 L163.733561,43.8304628 L160.2233,43.8304628 L160.2233,47.6439437 L159.173763,47.6439437 L159.173763,39.3755734 L160.2233,39.3755734 L160.2233,42.8278471 L163.733561,42.8278471 L163.733561,39.3755734 L164.794608,39.3755734 L164.794608,47.6439437 L163.733561,47.6439437 Z M170.162254,47.6439437 L170.162254,39.3755734 L175.631268,39.3755734 L175.631268,40.3317103 L171.199839,40.3317103 L171.199839,42.8513078 L174.546318,42.8513078 L174.546318,43.8304628 L171.199839,43.8304628 L171.199839,46.6878068 L175.631268,46.6878068 L175.631268,47.6439437 L170.162254,47.6439437 Z M183.307364,40.3317103 L181.511952,40.3317103 L181.511952,43.2355332 L183.307364,43.2355332 C184.287404,43.2355332 184.986801,42.8393561 184.986801,41.7893763 C184.986801,40.7402817 184.287404,40.3317103 183.307364,40.3317103 Z M184.963783,47.6439437 L183.400765,44.2031791 L181.511952,44.2031791 L181.511952,47.6439437 L180.473924,47.6439437 L180.473924,39.3755734 L183.307364,39.3755734 C184.275453,39.3755734 184.951831,39.6438229 185.406881,40.1103823 C185.803501,40.5300201 186.059799,41.0665191 186.059799,41.7893763 C186.059799,42.5126761 185.826962,43.0026962 185.429899,43.422334 C185.185553,43.6790744 184.835412,43.8769416 184.438793,44.0053119 L186.094769,47.6439437 L184.963783,47.6439437 Z M194.261328,40.4370624 L192.978068,44.5303018 L195.579115,44.5303018 L194.261328,40.4370624 Z M196.569779,47.6439437 L195.882334,45.5098994 L192.675292,45.5098994 L191.998913,47.6439437 L190.937425,47.6439437 L193.654447,39.3755734 L194.914245,39.3755734 L197.642777,47.6439437 L196.569779,47.6439437 Z M205.435734,40.3202012 L203.523018,40.3202012 L203.523018,43.491831 L205.447243,43.491831 C206.555211,43.491831 207.23159,42.9792354 207.23159,41.8712676 C207.23159,40.8217304 206.462254,40.3202012 205.435734,40.3202012 Z M207.604748,43.7140443 C207.16165,44.1567002 206.380362,44.4369014 205.470704,44.4369014 L203.523018,44.4369014 L203.523018,47.6439437 L202.485433,47.6439437 L202.485433,39.3755734 L205.458753,39.3755734 C206.427284,39.3755734 207.22008,39.6787928 207.663179,40.1573038 C208.059356,40.5884507 208.304145,41.1479678 208.304145,41.8712676 C208.304145,42.6755734 208.047847,43.270503 207.604748,43.7140443 Z M217.030664,44.2855131 L217.030664,47.6439437 L215.980684,47.6439437 L215.980684,44.2855131 L213.147243,39.3755734 L214.313199,39.3755734 L216.540644,43.3289336 L218.756137,39.3755734 L219.863662,39.3755734 L217.030664,44.2855131 Z" id="parker-institute-for-cancer-immunotherapy"></path>
                        </g>
                        <g id="logo-pici">
                            <path d="M0,47.7802817 L0,23.9034205 L7.96780684,23.9034205 L7.96780684,47.7802817 L0,47.7802817 Z M23.9034205,47.7802817 L23.9034205,0 L31.8712274,0 L31.8712274,47.7802817 L23.9034205,47.7802817 Z M63.7424547,47.7802817 L63.7424547,0 L71.7102616,0 L71.7102616,47.7802817 L63.7424547,47.7802817 Z M0,0 L15.9356137,0 L15.9356137,23.9034205 L7.96780684,23.9034205 L7.96780684,7.96780684 L0,7.96780684 L0,0 Z M39.8390342,47.806841 L39.8390342,7.96780684 L47.806841,7.96780684 L47.806841,39.8390342 L55.7746479,39.8390342 L55.7746479,47.806841 L39.8390342,47.806841 Z M47.806841,7.96780684 L47.806841,0 L55.7746479,0 L55.7746479,7.96780684 L47.806841,7.96780684 Z" id="pici-mark"></path>
                        </g>
                    </g>
                </g>
            </svg>
