<?xml version="1.0" encoding="UTF-8"?><svg id="Layer_1" xmlns="http://www.w3.org/2000/svg" viewBox="0 0 231 231"><defs><style>.cls-1{fill:#fff;}</style></defs><g id="jsZwaS.tif"><path class="cls-1" d="M190.37,9.47v202.76H29.73V9.47h160.64ZM88.9,142.28c-.6,2.38-1.56,4.64-2.13,7.04-.31,1.32-.38,3.54-.79,4.59-.08.21-2.17,2.69-2.33,2.81-.97.65-4.68.95-6.06,1.28-11.12,2.63-32.77,9.06-33.9,22.83-1.27,15.38,25.38,18.82,36.28,19.9,12.73,1.26,28.41,1.81,41.04-.03,2.8-.41,5.57-1.11,8.34-1.68.9.09,1.78,2.46,2.94,2.69,1.82.35,6.04-.05,8.03-.27,5.62-.62,13.73-2.69,16.83-7.87,2.7-4.52.8-10.94,1.31-15.86.18-1.7,1.6-4.65,1.99-6.77,1.29-7.06.12-14.23-2.49-20.83-.75-1.89-1.78-3.64-2.56-5.51,1.84-2.18,2.95-4.17,3.17-7.09.38-4.98.34-12.85.01-17.86-.19-2.91-1.12-5.24-3.19-7.33,18.95-12.05,27.86-34.22,21.33-56.07-5-16.75-18.61-30.49-35.96-33.98-9.13-1.84-20.47-1.17-29.72-.04-1.45.18-3.88.99-5.15.93-.6-.03-1.38-.52-2.04-.64-4.55-.88-9.17-1.52-13.82-1.26l-4.82,5.45c-22.8,3.24-44.95,18.17-41.03,44,2.29,15.1,12.7,26.48,26.61,32.07-2.25,1.69-4.17,4.01-4.61,6.87.39,6.7-.61,14.16-.03,20.77.79,9.18,15.47,11.79,22.75,11.85Z"/><path d="M88.9,142.28c-7.28-.06-21.95-2.68-22.75-11.85-.57-6.62.42-14.07.03-20.77.44-2.87,2.37-5.18,4.61-6.87-13.91-5.59-24.32-16.97-26.61-32.07-3.92-25.83,18.23-40.76,41.03-44l4.82-5.45c4.65-.26,9.27.37,13.82,1.26.67.13,1.44.62,2.04.64,1.27.06,3.7-.75,5.15-.93,9.25-1.13,20.59-1.8,29.72.04,17.35,3.5,30.95,17.23,35.96,33.98,6.53,21.85-2.38,44.03-21.33,56.07,2.07,2.08,3,4.41,3.19,7.33.33,5.01.37,12.88-.01,17.86-.22,2.92-1.34,4.91-3.17,7.09.78,1.87,1.81,3.63,2.56,5.51,2.62,6.6,3.79,13.77,2.49,20.83-.39,2.12-1.81,5.07-1.99,6.77-.51,4.92,1.4,11.33-1.31,15.86-3.1,5.19-11.2,7.26-16.83,7.87-1.99.22-6.21.62-8.03.27-1.17-.22-2.04-2.59-2.94-2.69-2.77.56-5.54,1.27-8.34,1.68-12.63,1.84-28.31,1.29-41.04.03-10.9-1.08-37.54-4.52-36.28-19.9,1.13-13.77,22.78-20.21,33.9-22.83,1.38-.33,5.09-.63,6.06-1.28.16-.11,2.25-2.6,2.33-2.81.41-1.05.47-3.27.79-4.59.57-2.4,1.53-4.66,2.13-7.04ZM110.9,37.85v-4.28c0-1.04-2.66-3.22-3.59-3.74-4.29-2.39-9.77-2.66-14.57-2.93-.4.12-3.09,3.19-3.1,3.49-.02.71,2.46,3.12,3.1,3.75,4.18.06,8.57.41,12.59,1.59,1.91.56,3.69,1.61,5.57,2.13ZM116.53,103.14c8.85,4.66,18.93,2.23,28.42,4.23,1.15.24,4.32,1.55,5.14,1.35,23.54-12.94,30.38-42.3,14.57-64.35-9.46-13.19-23.86-18.61-39.94-17.54l-10.87.75c1.46,1.89,2.51,3.78,2.7,6.23.29,3.74.48,18.6-.49,21.54-.31.93-.95,1.65-1.23,2.55l12.09,2.7,4.94-5.35c9.04-.51,25.83,1.09,26.73,12.8.38,4.99.34,12.84.01,17.86-.61,9.51-11.01,12.27-18.96,13.07-7.06.71-14.69-.56-21.31,2.65-.33.16-2.18.95-1.79,1.5ZM82.74,32.78c-12.48.85-30.07,12.9-32.85,25.6-3.89,17.83,8.5,34.16,24.88,39.7,5.38,1.82,6.22.5,11.32.18,6.37-.4,14.74.46,20.58-2.65,2.11-1.13,1.27-1.47-.49-2.28-6.72-3.1-14.92-1.89-22.04-2.65-6.75-.72-15.71-3.19-17.86-10.5.3-6.9-.78-14.87-.11-21.65.63-6.38,8.95-9.76,14.41-10.78,1.88-.35,3.98-.29,5.76-.6.28-.05.45-.13.61-.37-1.69-3.6-1.42-7.42-.52-11.19l-2.41-2.75c-.42-.26-.84-.08-1.27-.05ZM93.37,46.58c.39.33,3.23.13,3.96.07,3.68-.31,7.77-1.27,10.88-3.3-4.75-3.32-11.25-3.57-16.87-3.55-.27,1.85.58,5.54,2.03,6.78ZM110.9,48.61c-3.51,1.73-7.02,2.81-10.92,3.39-7.33,1.08-22.41-.72-27.36,5.65-.17.22-.85,1.23-.85,1.35v4.52c4.34-2.08,9.01-3.23,13.82-3.67,7.01-.64,14.47.56,20.99-2.73,1.24-.63,4.31-2.76,4.31-4.25v-4.28ZM152.71,71.84c.16-.24.07-3.79,0-4.29-.52-4.14-8.75-6.01-12.14-6.44-1.55-.2-4.37-.55-5.83-.27-.82.16-2.51,2.7-3.21,3.41l2.9,3.52c6.3.5,12.67.88,18.28,4.08ZM150.02,77.46c.41-.58-1.9-1.59-2.28-1.75-4.81-2.04-10.49-2.06-15.64-2.21l-6.79-7.4c-5.32-1.11-10.69-2.13-15.8-3.99-10.03,5.27-22.57,1.18-32.66,5.38-3.36,1.4-2.79,1.73.31,3,7.62,3.1,16.86,1.41,24.94,2.93,5.67,1.07,12.49,3.87,14.17,9.92,3.6-1.2,7.33-2.09,11.12-2.44,5.02-.47,10.11.09,15.09-.8,2.62-.47,5.17-1.42,7.52-2.63ZM71.78,74.29v4.77c0,.83,2.68,2.96,3.45,3.4,7.8,4.4,20.26,1.91,29.37,4.38.91.24,4.32,1.65,4.73,1.63,1.01-.05,1.6-1.7,1.6-2.56,0-3.2-3.79-5.19-6.43-6.06-7.89-2.61-16.49-.95-24.69-2.69-2.81-.6-5.45-1.62-8.02-2.86ZM152.71,82.6c-3.11,1.38-6.35,2.54-9.72,3.11-7.94,1.34-16.59-.41-24.26,2.88-1.63.7-5.14,2.92-5.14,4.89v3.67l.5.26c3.05-1.74,6.5-2.71,9.96-3.25,6.98-1.09,13.92-.02,20.89-1.85,2.92-.77,7.77-2.7,7.77-6.17v-3.55ZM107.97,107.8v-6.6c-2.7,1.07-5.59,1.77-8.47,2.17-7.54,1.05-15.39-.4-22.58,2.61-1.35.56-5.14,2.78-5.14,4.4v4.52c1.51-.63,2.95-1.45,4.52-1.96,7.83-2.6,15.35-1.29,23.2-2.47,3.03-.46,5.72-1.35,8.47-2.66ZM113.59,108.41v4.16c0,.07.6,1.04.73,1.22,5.08,6.84,20.81,4.79,28.45,6.03,3.28.53,7.05,1.52,9.82,3.38.61-.38.12-.51.12-.61v-4.4c0-.12-1.04-1.47-1.25-1.69-5.55-5.65-19.76-3.97-27.2-5.08-3.55-.53-7.06-1.48-10.17-3.28l-.5.26ZM111.23,118.96c-1.44-1.52-2.33-3.09-3.13-5.02-9.47,4.43-20.96.99-30.45,4.49-.48.18-3.6,1.51-3.18,2.07,8.93,4.89,19.38,2.14,28.95,4.41,1.46-.56,2.67-1.63,4.05-2.33s3.8-1.47,4.9-2.2c.61-.4-.95-1.24-1.14-1.43ZM138.29,131.76c-1.46-1.39-7.08-6.83-8.69-7.08-.63-.1-1.31.06-1.94-.01-5.17-.63-6.24-1.51-11.43.31-1.9.67-3.7,1.62-5.56,2.39-.31.45,1.86,1.6,2.25,1.96,1.54,1.38,2.89,3.33,3.38,5.38,7.02-2.93,14.58-2.49,22-2.94ZM150,128.12c-3.16-1.79-6.65-2.57-10.24-2.96-.09.41.13.5.37.73,1.61,1.56,3.38,3,4.94,4.62,1.82,0,3.31-1.09,4.93-1.7v-.68ZM71.78,125.4v4.77c0,.07.6,1.04.73,1.22,4.7,6.32,19.03,4.75,26.01,5.53,3.71.42,7.41,1.35,10.8,2.9,3.26-1.91,1.2-5.43-1.27-7.05-6.97-4.57-18.52-2.7-26.54-4.02-3.31-.55-6.86-1.6-9.73-3.35ZM152.71,138.49c.19-.95,0-3.04,0-4.16,0-.03.47-.6-.12-.61-.2,0-2.95,1.46-3.67,1.71-8.32,2.93-15.84,1.49-24.14,2.75-2.98.45-8.13,1.92-10.07,4.36-1.43,1.8-.74,3.86-1.12,5.97l.48.25c2.84-1.84,6.38-2.73,9.7-3.26,7.14-1.15,14.55-.06,21.46-2.02,2.1-.6,7-2.61,7.48-4.99ZM107.96,145.47c-.13-.2-3.84-1.7-4.39-1.85-1.54-.44-6.81-1.43-8.15-1.1-.61.77-3.01,6.46-2.61,6.86,3.55-.06,7.14-.31,10.57-1.29.75-.21,4.18-1.41,4.48-1.88.12-.19.19-.6.1-.73ZM155.16,163.31c-.03-5.42-1.87-11.03-4.56-15.63-10.84,4.9-23.69.23-34.07,6.22-.11.48,1.57,1.29,1.96,1.46,6.9,3.05,14.63,1.79,21.88,2.57,5.22.57,10.64,2.1,14.79,5.38ZM107.97,152.55c-4.89,1.75-10.04,2.49-15.23,2.5-.37.11-3.1,3.25-3.1,3.49-.01.54,2.79,3.75,3.3,3.8.38.03.82-.24,1.22-.25,4.63-.08,9.92-.62,13.81-3.3v-6.24ZM113.97,159.4c-.65.13-.38,3.76-.14,4.52,1.55,4.9,11.39,6.26,15.77,6.5,7.15.39,12.85-.13,19.82,2.43.88.32,2.2,1.2,2.79,1.37.32.1.4.18.63-.14.17-.24-.09-4.46-.26-4.88-.74-1.85-4.42-3.68-6.23-4.28-7.79-2.56-16.4-.92-24.49-2.65-2.74-.59-5.42-1.55-7.89-2.86ZM119.71,194.87c-13.87-3.59-28.75-13.18-32.94-27.59-.33-1.12-.61-4.65-1.71-4.9-.48-.11-5.71,1.08-6.68,1.3-8.17,1.85-27.85,7.54-29.03,17.43-.87,7.27,12.35,10.82,17.74,11.97,13.51,2.9,37.99,4.47,51.49,2.24.29-.05,1.14-.07,1.13-.45ZM131.74,183.42c6.17-.38,12.93-.13,18.29-3.61.16-.64-2.18-1.51-2.69-1.7-10.69-4.1-22.69.2-33.25-5.87-2.97-1.71-4.64-3.83-6.01-6.96-4.8,1.89-9.91,2.32-15.02,2.67,2.5,6.56,8.2,12,14.11,15.6,5.47,3.34,12.1,6.08,18.53,6.65l.51-.22,5.53-6.57ZM152.96,185.08c-1.26.14-2.33,1.02-3.54,1.47-3.05,1.14-6.79,1.87-10.03,2.19-1.59.16-3.28-.28-4.82.31l-3.08,3.48,3.05,3.5c4.88.06,15.33-.96,17.89-5.75.1-.19.53-1.11.53-1.18v-4.04Z"/><path class="cls-1" d="M116.53,103.14c-.39-.56,1.46-1.34,1.79-1.5,6.62-3.21,14.25-1.94,21.31-2.65,7.95-.8,18.35-3.57,18.96-13.07.32-5.03.37-12.87-.01-17.86-.9-11.71-17.69-13.31-26.73-12.8l-4.94,5.35-12.09-2.7c.29-.9.93-1.62,1.23-2.55.97-2.94.78-17.8.49-21.54-.19-2.45-1.24-4.34-2.7-6.23l10.87-.75c16.08-1.07,30.48,4.35,39.94,17.54,15.81,22.05,8.97,51.42-14.57,64.35-.82.2-3.98-1.11-5.14-1.35-9.49-2-19.57.43-28.42-4.23Z"/><path class="cls-1" d="M82.74,32.78c.43-.03.85-.21,1.27.05l2.41,2.75c-.9,3.77-1.17,7.59.52,11.19-.16.25-.33.33-.61.37-1.78.3-3.87.25-5.76.6-5.46,1.01-13.78,4.4-14.41,10.78-.67,6.78.41,14.76.11,21.65,2.15,7.31,11.11,9.78,17.86,10.5,7.12.76,15.33-.45,22.04,2.65,1.76.81,2.6,1.16.49,2.28-5.84,3.11-14.21,2.25-20.58,2.65-5.1.32-5.94,1.64-11.32-.18-16.38-5.54-28.77-21.87-24.88-39.7,2.77-12.71,20.37-24.75,32.85-25.6Z"/><path class="cls-1" d="M119.71,194.87c0,.38-.85.41-1.13.45-13.49,2.23-37.98.66-51.49-2.24-5.38-1.16-18.6-4.7-17.74-11.97,1.18-9.89,20.86-15.58,29.03-17.43.97-.22,6.2-1.41,6.68-1.3,1.1.25,1.38,3.78,1.71,4.9,4.19,14.41,19.07,24,32.94,27.59Z"/><path class="cls-1" d="M150.02,77.46c-2.35,1.21-4.91,2.16-7.52,2.63-4.98.9-10.07.33-15.09.8-3.8.36-7.52,1.25-11.12,2.44-1.69-6.05-8.51-8.85-14.17-9.92-8.08-1.52-17.33.17-24.94-2.93-3.1-1.26-3.67-1.6-.31-3,10.1-4.2,22.63-.11,32.66-5.38,5.11,1.87,10.48,2.89,15.8,3.99l6.79,7.4c5.15.15,10.84.17,15.64,2.21.37.16,2.69,1.18,2.28,1.75Z"/><path class="cls-1" d="M131.74,183.42l-5.53,6.57-.51.22c-6.43-.56-13.06-3.31-18.53-6.65-5.91-3.6-11.6-9.04-14.11-15.6,5.1-.36,10.22-.78,15.02-2.67,1.36,3.12,3.04,5.25,6.01,6.96,10.56,6.07,22.56,1.77,33.25,5.87.51.2,2.85,1.06,2.69,1.7-5.36,3.47-12.12,3.23-18.29,3.61Z"/><path class="cls-1" d="M155.16,163.31c-4.15-3.28-9.57-4.81-14.79-5.38-7.25-.79-14.98.48-21.88-2.57-.38-.17-2.07-.98-1.96-1.46,10.37-5.99,23.23-1.32,34.07-6.22,2.69,4.61,4.53,10.22,4.56,15.63Z"/><path class="cls-1" d="M152.71,82.6v3.55c0,3.47-4.86,5.4-7.77,6.17-6.97,1.83-13.9.77-20.89,1.85-3.46.54-6.91,1.51-9.96,3.25l-.5-.26v-3.67c0-1.97,3.51-4.19,5.14-4.89,7.67-3.29,16.32-1.54,24.26-2.88,3.37-.57,6.62-1.74,9.72-3.11Z"/><path class="cls-1" d="M113.59,108.41l.5-.26c3.11,1.8,6.62,2.76,10.17,3.28,7.45,1.1,21.65-.58,27.2,5.08.21.21,1.25,1.56,1.25,1.69v4.4c0,.09.49.23-.12.61-2.77-1.86-6.54-2.85-9.82-3.38-7.64-1.24-23.36.81-28.45-6.03-.14-.18-.73-1.15-.73-1.22v-4.16Z"/><path class="cls-1" d="M113.97,159.4c2.47,1.32,5.15,2.28,7.89,2.86,8.09,1.73,16.7.09,24.49,2.65,1.82.6,5.5,2.43,6.23,4.28.17.42.43,4.64.26,4.88-.23.32-.32.24-.63.14-.59-.18-1.91-1.05-2.79-1.37-6.96-2.56-12.67-2.04-19.82-2.43-4.38-.24-14.22-1.59-15.77-6.5-.24-.76-.51-4.39.14-4.52Z"/><path class="cls-1" d="M110.9,48.61v4.28c0,1.48-3.07,3.62-4.31,4.25-6.52,3.29-13.98,2.09-20.99,2.73-4.8.44-9.48,1.58-13.82,3.67v-4.52c0-.13.68-1.13.85-1.35,4.95-6.38,20.03-4.57,27.36-5.65,3.89-.58,7.4-1.66,10.92-3.39Z"/><path class="cls-1" d="M152.71,138.49c-.48,2.38-5.37,4.4-7.48,4.99-6.91,1.96-14.32.87-21.46,2.02-3.32.53-6.86,1.43-9.7,3.26l-.48-.25c.38-2.11-.31-4.17,1.12-5.97,1.94-2.44,7.09-3.9,10.07-4.36,8.3-1.26,15.82.17,24.14-2.75.71-.25,3.46-1.71,3.67-1.71.59,0,.12.57.12.61,0,1.12.19,3.21,0,4.16Z"/><path class="cls-1" d="M71.78,125.4c2.86,1.76,6.42,2.81,9.73,3.35,8.02,1.33,19.57-.54,26.54,4.02,2.47,1.62,4.53,5.14,1.27,7.05-3.39-1.55-7.08-2.48-10.8-2.9-6.98-.78-21.31.79-26.01-5.53-.14-.18-.73-1.15-.73-1.22v-4.77Z"/><path class="cls-1" d="M71.78,74.29c2.57,1.25,5.21,2.27,8.02,2.86,8.2,1.74,16.8.08,24.69,2.69,2.64.87,6.43,2.86,6.43,6.06,0,.86-.59,2.5-1.6,2.56-.41.02-3.82-1.39-4.73-1.63-9.11-2.46-21.57.03-29.37-4.38-.77-.44-3.45-2.57-3.45-3.4v-4.77Z"/><path class="cls-1" d="M107.97,107.8c-2.75,1.31-5.44,2.2-8.47,2.66-7.85,1.19-15.37-.13-23.2,2.47-1.56.52-3.01,1.33-4.52,1.96v-4.52c0-1.62,3.79-3.83,5.14-4.4,7.19-3,15.04-1.56,22.58-2.61,2.88-.4,5.77-1.1,8.47-2.17v6.6Z"/><path class="cls-1" d="M111.23,118.96c.18.19,1.74,1.03,1.14,1.43-1.1.73-3.51,1.49-4.9,2.2s-2.59,1.76-4.05,2.33c-9.57-2.26-20.02.48-28.95-4.41-.42-.56,2.7-1.9,3.18-2.07,9.48-3.5,20.98-.06,30.45-4.49.81,1.92,1.69,3.5,3.13,5.02Z"/><path class="cls-1" d="M138.29,131.76c-7.43.45-14.98.01-22,2.94-.48-2.05-1.84-3.99-3.38-5.38-.39-.35-2.56-1.5-2.25-1.96,1.86-.77,3.66-1.72,5.56-2.39,5.19-1.82,6.26-.94,11.43-.31.63.08,1.31-.08,1.94.01,1.61.25,7.23,5.69,8.69,7.08Z"/><path class="cls-1" d="M152.96,185.08v4.04c0,.07-.43.99-.53,1.18-2.56,4.78-13.01,5.81-17.89,5.75l-3.05-3.5,3.08-3.48c1.55-.59,3.23-.15,4.82-.31,3.24-.33,6.98-1.06,10.03-2.19,1.21-.45,2.28-1.33,3.54-1.47Z"/><path class="cls-1" d="M110.9,37.85c-1.88-.52-3.66-1.57-5.57-2.13-4.02-1.18-8.42-1.52-12.59-1.59-.64-.63-3.12-3.04-3.1-3.75,0-.3,2.71-3.37,3.1-3.49,4.8.27,10.28.54,14.57,2.93.93.52,3.59,2.71,3.59,3.74v4.28Z"/><path class="cls-1" d="M152.71,71.84c-5.61-3.2-11.98-3.58-18.28-4.08l-2.9-3.52c.7-.7,2.39-3.25,3.21-3.41,1.46-.27,4.27.08,5.83.27,3.39.43,11.63,2.3,12.14,6.44.06.5.15,4.04,0,4.29Z"/><path class="cls-1" d="M107.97,152.55v6.24c-3.89,2.68-9.18,3.22-13.81,3.3-.41,0-.84.28-1.22.25-.51-.05-3.32-3.26-3.3-3.8,0-.24,2.74-3.38,3.1-3.49,5.19,0,10.34-.75,15.23-2.5Z"/><path class="cls-1" d="M93.37,46.58c-1.44-1.24-2.3-4.93-2.03-6.78,5.62-.03,12.12.23,16.87,3.55-3.1,2.03-7.2,2.99-10.88,3.3-.73.06-3.58.26-3.96-.07Z"/><path class="cls-1" d="M107.96,145.47c.09.13.02.54-.1.73-.3.46-3.73,1.66-4.48,1.88-3.42.98-7.02,1.23-10.57,1.29-.4-.4,2-6.09,2.61-6.86,1.35-.32,6.62.66,8.15,1.1.54.16,4.25,1.66,4.39,1.85Z"/><path class="cls-1" d="M150,128.12v.68c-1.62.61-3.11,1.71-4.93,1.7-1.56-1.61-3.33-3.06-4.94-4.62-.24-.23-.46-.32-.37-.73,3.59.4,7.08,1.17,10.24,2.96Z"/></g></svg>