<?xml version="1.0" encoding="UTF-8"?><svg id="Layer_1" xmlns="http://www.w3.org/2000/svg" viewBox="0 0 231 231"><defs><style>.cls-1{stroke-width:2px;}.cls-1,.cls-2{fill:#fff;}.cls-1,.cls-2,.cls-3{stroke:#231f20;stroke-miterlimit:10;}.cls-2,.cls-3{stroke-width:3px;}</style></defs><path class="cls-3" d="M97.78,173.86h-2.1c-.11,0-.98-.22-1.17-.28-1.25-.4-2.31-1.46-2.39-2.83v-30.17c0-1.24,1.81-2.97,2.97-2.97h2.68v-3.92h-2.68c-.88,0-2.56-1.37-2.79-2.28-.41-10.29-.06-20.68-.18-31.01.17-1.09.79-2.06,1.78-2.57.13-.06.99-.41,1.04-.41h2.82l-.02-28.34-.12-.17c-3.39-.66-6.19-2.9-6.51-6.53v-30.31c.31-3.68,3.28-6.1,6.74-6.74-.15-3.1.77-5.97,3.43-7.73,4.65-3.06,10.85-.36,11.81,5.05v46.55c.35,3.51,4,5.9,7.31,4.4,1.29-.58,2.82-2.42,2.97-3.84.14-1.26-.58-.85-1.55-1.18-2.78-.95-4.79-2.9-5.24-5.92v-31.02c1.28-8.64,15.32-8.21,15.93.41.69,9.81-.53,20.42,0,30.32-.31,3.69-3.17,5.89-6.59,6.59-.51,6.45-8.04,9.46-12.88,5.09-4.33-3.9-1.62-14.15-2.39-19.52-.2-9.92.78-20.59.16-30.46-.23-3.64-3.03-6.43-6.78-5.33-2.92.85-4.08,3.87-3.64,6.71,3.21.41,6.12,2.75,6.64,6.04l.02,30.88c-.14,2.84-2.31,5.18-4.89,6.13-.4.15-1.67.31-1.76.56l-.02,28.34h2.82c1.18,0,2.82,1.75,2.82,2.97v30.17c-.03,1.08-.89,2.19-1.83,2.66-.18.09-1.17.45-1.28.45h-2.53v3.92h2.68c.07,0,1.08.42,1.24.5.81.42,1.62,1.4,1.73,2.33v30.32c0,1.17-1.08,2.4-2.13,2.79-.21.08-1.13.32-1.27.32h-2.24M97.89,26.53c-2.55.32-5.05,2.37-5.45,4.98v31.17c1.17,6.87,11.9,6.92,13.29.13v-31.02c-.62-3.8-4.17-5.73-7.84-5.26ZM123.36,26.53c-2.43.31-5.15,2.44-5.45,4.98v31.17c1.19,6.88,11.9,6.91,13.29.13v-31.02c-.61-3.83-4.14-5.73-7.84-5.26ZM95.28,98.61c-.5.09-1.54.68-1.73,1.16l-.08,31.18c.14.85,1.13,1.44,1.93,1.54,1.43.2,6.05.18,7.48-.03.85-.12,1.74-.72,1.85-1.63l-.03-30.87c-.16-.7-1.43-1.31-2.08-1.4-1.28-.18-6.1-.19-7.33.02ZM95.13,138.79c-.77.16-1.65.94-1.7,1.78l.04,30.57c.24.87,1.08,1.43,1.93,1.54,1.3.18,6.22.19,7.48-.02.83-.14,1.79-.87,1.85-1.77l-.04-30.57c-.24-.87-1.08-1.43-1.93-1.54-1.17-.16-6.57-.2-7.63.02Z"/><path class="cls-1" d="M123.36,26.53c3.69-.47,7.22,1.42,7.85,5.26v31.02c-1.4,6.78-12.11,6.75-13.31-.13v-31.17c.31-2.54,3.03-4.67,5.46-4.98Z"/><path class="cls-1" d="M97.89,26.53c3.67-.47,7.21,1.46,7.85,5.26v31.02c-1.4,6.79-12.13,6.74-13.31-.13v-31.17c.41-2.61,2.92-4.66,5.46-4.98Z"/><path class="cls-2" d="M95.28,98.61c1.23-.21,6.06-.2,7.33-.02.65.09,1.92.69,2.08,1.4l.03,30.87c-.11.9-1,1.5-1.85,1.63-1.43.21-6.05.22-7.48.03-.8-.11-1.79-.7-1.93-1.54l.08-31.18c.19-.48,1.23-1.08,1.73-1.16Z"/><path class="cls-2" d="M95.13,138.79c1.06-.22,6.46-.18,7.63-.02.86.12,1.7.68,1.93,1.54l.04,30.57c-.06.9-1.02,1.63-1.85,1.77-1.26.21-6.18.2-7.48.02-.86-.12-1.7-.68-1.93-1.54l-.04-30.57c.05-.84.93-1.62,1.7-1.78Z"/><path class="cls-3" d="M166.65,97.52l-.02-28.34-.12-.17c-3.39-.66-6.19-2.9-6.51-6.53v-30.31c.31-3.68,3.28-6.1,6.74-6.74-.15-3.1.77-5.97,3.43-7.73,4.65-3.06,10.85-.36,11.81,5.05v46.55c.35,3.51,4,5.9,7.31,4.4,1.29-.58,2.82-2.42,2.97-3.84.14-1.26-.58-.85-1.55-1.18-2.78-.95-4.79-2.9-5.24-5.92v-31.02c1.28-8.64,15.32-8.21,15.93.41.69,9.81-.53,20.42,0,30.32-.31,3.69-3.17,5.89-6.59,6.59-.51,6.45-8.04,9.46-12.88,5.09-4.33-3.9-1.62-14.15-2.39-19.52-.2-9.92.78-20.59.16-30.46-.23-3.64-3.03-6.43-6.78-5.33-2.92.85-4.08,3.87-3.64,6.71,3.21.41,6.12,2.75,6.64,6.04l.02,30.88c-.14,2.84-2.31,5.18-4.89,6.13-.4.15-1.67.31-1.76.56l-.02,28.34h2.82c1.18,0,2.82,1.75,2.82,2.97v30.17c-.03,1.08-.89,2.19-1.83,2.66-.18.09-1.17.45-1.28.45h-2.53v3.92h2.68c.07,0,1.08.42,1.24.5.81.42,1.62,1.4,1.73,2.33v30.32c0,1.17-1.08,2.4-2.13,2.79-.21.08-1.13.32-1.27.32h-2.24v4.35h2.24c1.5,0,3.18,1.32,3.39,2.84l-.02,30.7c-.39,1.61-1.58,2.58-3.22,2.72-1.5.13-7.11.19-8.32-.23s-2.26-1.42-2.33-2.75l.02-30.45c.13-1.47,2.01-2.84,3.39-2.84h2.24v-4.35h-2.1c-.11,0-.98-.22-1.17-.28-1.25-.4-2.31-1.46-2.39-2.83v-30.17c0-1.24,1.81-2.97,2.97-2.97h2.68v-3.92h-2.68c-.88,0-2.56-1.37-2.79-2.28-.41-10.29-.06-20.68-.18-31.01.17-1.09.79-2.06,1.78-2.57.13-.06.99-.41,1.04-.41h2.82ZM166.76,26.63c-2.55.32-5.05,2.37-5.45,4.98v31.17c1.17,6.87,11.9,6.92,13.29.13v-31.02c-.62-3.8-4.17-5.73-7.84-5.26ZM192.24,26.63c-2.43.31-5.15,2.44-5.45,4.98v31.17c1.19,6.88,11.9,6.91,13.29.13v-31.02c-.61-3.83-4.14-5.73-7.84-5.26ZM164.15,98.72c-.5.09-1.54.68-1.73,1.16l-.08,31.18c.14.85,1.13,1.44,1.93,1.54,1.43.2,6.05.18,7.48-.03.85-.12,1.74-.72,1.85-1.63l-.03-30.87c-.16-.7-1.43-1.31-2.08-1.4-1.28-.18-6.1-.19-7.33.02ZM164.01,138.89c-.77.16-1.65.94-1.7,1.78l.04,30.57c.24.87,1.08,1.43,1.93,1.54,1.3.18,6.22.19,7.48-.02.83-.14,1.79-.87,1.85-1.77l-.04-30.57c-.24-.87-1.08-1.43-1.93-1.54-1.17-.16-6.57-.2-7.63.02ZM173.11,180.25c-.17-.16-.74-.49-.96-.56-1.19-.38-6.07-.35-7.46-.21-1.01.1-1.95.6-2.36,1.55l-.03,30.72c.04.68.85,1.4,1.45,1.59,1.1.36,7.16.36,8.29.03.64-.19,1.27-.75,1.53-1.37l.04-30.87c-.02-.29-.3-.7-.49-.88Z"/><path class="cls-1" d="M192.24,26.63c3.69-.47,7.22,1.42,7.85,5.26v31.02c-1.4,6.78-12.11,6.75-13.31-.13v-31.17c.31-2.54,3.03-4.67,5.46-4.98Z"/><path class="cls-1" d="M166.76,26.63c3.67-.47,7.21,1.46,7.85,5.26v31.02c-1.4,6.79-12.13,6.74-13.31-.13v-31.17c.41-2.61,2.92-4.66,5.46-4.98Z"/><path class="cls-2" d="M173.11,180.25c.2.19.47.59.49.88l-.04,30.87c-.25.62-.89,1.18-1.53,1.37-1.13.33-7.19.33-8.29-.03-.6-.2-1.4-.91-1.45-1.59l.03-30.72c.41-.95,1.35-1.45,2.36-1.55,1.39-.14,6.27-.16,7.46.21.22.07.79.4.96.56Z"/><path class="cls-2" d="M164.15,98.72c1.23-.21,6.06-.2,7.33-.02.65.09,1.92.69,2.08,1.4l.03,30.87c-.11.9-1,1.5-1.85,1.63-1.43.21-6.05.22-7.48.03-.8-.11-1.79-.7-1.93-1.54l.08-31.18c.19-.48,1.23-1.08,1.73-1.16Z"/><path class="cls-2" d="M164.01,138.89c1.06-.22,6.46-.18,7.63-.02.86.12,1.7.68,1.93,1.54l.04,30.57c-.06.9-1.02,1.63-1.85,1.77-1.26.21-6.18.2-7.48.02-.86-.12-1.7-.68-1.93-1.54l-.04-30.57c.05-.84.93-1.62,1.7-1.78Z"/><path class="cls-3" d="M33.01,133.78h-2.68c-.88,0-2.56-1.37-2.79-2.28-.41-10.29-.06-20.68-.18-31.01.17-1.09.79-2.06,1.78-2.57.13-.06.99-.41,1.04-.41h2.82l-.02-28.34-.12-.17c-3.39-.66-6.19-2.9-6.51-6.53v-30.31c.31-3.68,3.28-6.1,6.74-6.74-.15-3.1.77-5.97,3.43-7.73,4.65-3.06,10.85-.36,11.81,5.05v46.55c.35,3.51,4,5.9,7.31,4.4,1.29-.58,2.82-2.42,2.97-3.84.14-1.26-.58-.85-1.55-1.18-2.78-.95-4.79-2.9-5.24-5.92v-31.02c1.28-8.64,15.32-8.21,15.93.41.69,9.81-.53,20.42,0,30.32-.31,3.69-3.17,5.89-6.59,6.59-.51,6.45-8.04,9.46-12.88,5.09-4.33-3.9-1.62-14.15-2.39-19.52-.2-9.92.78-20.59.16-30.46-.23-3.64-3.03-6.43-6.78-5.33-2.92.85-4.08,3.87-3.64,6.71,3.21.41,6.12,2.75,6.64,6.04l.02,30.88c-.14,2.84-2.31,5.18-4.89,6.13-.4.15-1.67.31-1.76.56l-.02,28.34h2.82c1.18,0,2.82,1.75,2.82,2.97v30.17c-.03,1.08-.89,2.19-1.83,2.66-.18.09-1.17.45-1.28.45h-2.53M33.12,26.63c-2.55.32-5.05,2.37-5.45,4.98v31.17c1.17,6.87,11.9,6.92,13.29.13v-31.02c-.62-3.8-4.17-5.73-7.84-5.26ZM58.59,26.63c-2.43.31-5.15,2.44-5.45,4.98v31.17c1.19,6.88,11.9,6.91,13.29.13v-31.02c-.61-3.83-4.14-5.73-7.84-5.26ZM30.51,98.72c-.5.09-1.54.68-1.73,1.16l-.08,31.18c.14.85,1.13,1.44,1.93,1.54,1.43.2,6.05.18,7.48-.03.85-.12,1.74-.72,1.85-1.63l-.03-30.87c-.16-.7-1.43-1.31-2.08-1.4-1.28-.18-6.1-.19-7.33.02Z"/><path class="cls-1" d="M58.59,26.63c3.69-.47,7.22,1.42,7.85,5.26v31.02c-1.4,6.78-12.11,6.75-13.31-.13v-31.17c.31-2.54,3.03-4.67,5.46-4.98Z"/><path class="cls-1" d="M33.12,26.63c3.67-.47,7.21,1.46,7.85,5.26v31.02c-1.4,6.79-12.13,6.74-13.31-.13v-31.17c.41-2.61,2.92-4.66,5.46-4.98Z"/><path class="cls-2" d="M30.51,98.72c1.23-.21,6.06-.2,7.33-.02.65.09,1.92.69,2.08,1.4l.03,30.87c-.11.9-1,1.5-1.85,1.63-1.43.21-6.05.22-7.48.03-.8-.11-1.79-.7-1.93-1.54l.08-31.18c.19-.48,1.23-1.08,1.73-1.16Z"/></svg>