<?xml version="1.0" encoding="UTF-8"?><svg id="Layer_1" xmlns="http://www.w3.org/2000/svg" viewBox="0 0 231 231"><g id="l1nQMh"><path d="M179.01,157.32v-23.31c0-2.07,5.79-2.35,6.96,0v27.83c7.62,5.5,17.21,5.83,26.16,7.24l1.04,2.51-1.04,3.19c-33.52,4.64-51.8-26.89-72.77-46.68v22.61c0,2.64-6.24,4.93-7.51.55l-.49-29.43c-.75-1.56-10.02-5.74-11.48-3.13v42.44l-3.13,1.69-3.82-2.38v-42.79c-13.78,1.46-22.79,13.65-31.66,22.95l-4.21-6.23c12.28-14,24.13-26.44,44.48-24.28,23.95,2.53,38.68,35.29,57.48,47.22Z"/><path d="M94.13,157.32v-23.31l3.22-2.24,3.11.95.75,30.4c12.5,10.21,27.66,4.51,38.48-5.12,4.32-3.84,7.43-8.8,11.94-12.45l4.36,3.92-.27,1.57c-8.36,9.78-20.09,22.49-33.58,24.2-32.38,4.11-45.29-31.42-67.66-47.13v21.92c0,2.65-5.98,5.44-7.19.22l-.58-27.59c-5.77-2.78-12.08-4.53-18.4-5.6-3.67-.62-9.24,1.51-8.48-4.45.56-4.42,11.46-2.24,14.62-1.69,24.85,4.33,36.83,23.95,52.71,40.51,1.92,2.01,4.41,5.05,6.98,5.9Z"/><polygon points="74.66 130.19 74.65 38.35 84.78 38.35 85.07 118.69 74.66 130.19"/><polygon points="158.14 128.8 149.75 121.53 149.75 38.35 158.14 38.35 158.14 128.8"/><path d="M35.69,166.37c13.2-2.17,23.38-12.33,32.37-21.55l4.53,5.2c-9.44,12.07-25.22,23.41-40.92,25.2-4.91.56-15.1,1.93-11.12-5.9l7.49-.86.3-40.4,3.52-2.69,3.83,3.08v37.92Z"/><path d="M197.8,119.06c-13.43,1.85-23.83,12.39-33.05,21.55l-4.49-5.2c10.3-11.24,22.53-21.67,38.08-24.51,3.27-.6,14.07-2.69,14.77,1.59l-.63,3.51-6.58,1.07-1.14,1.64-.13,38.83c-1.95,3.26-4.62,2.93-6.82.13v-38.61Z"/><polygon points="111.53 105.84 111.53 38.35 120.82 38.35 121.96 38.35 121.86 104.69 121.76 105.78 111.53 105.84"/><path d="M133.79,38.35v70.97c-.34.39-6.25-3.74-8.41-3.48V38.35h8.41Z"/><polygon points="58.65 115.58 51.69 112.8 51.69 38.35 58.65 38.35 58.65 115.58"/><polygon points="174.84 115.58 174.84 38.35 181.8 38.35 181.8 111.75 174.84 115.58"/><polygon points="144.23 115.58 137.97 111.14 137.97 111.14 138.76 38.35 144.23 38.35 144.23 115.58"/><polygon points="107.35 106.53 101.09 107.93 101.09 38.35 107.35 38.35 107.35 106.53"/><polygon points="69.09 38.35 68.74 124.61 64.87 120.14 65.56 38.35 69.09 38.35"/><polygon points="163.71 38.35 168.71 38.35 168.71 119.05 163.71 124.62 163.71 38.35"/><polygon points="93.98 112.65 89.27 114.88 89.96 38.35 92.99 38.35 94.13 38.35 93.98 112.65"/></g></svg>