<?xml version="1.0" encoding="UTF-8"?><svg id="Layer_1" xmlns="http://www.w3.org/2000/svg" viewBox="0 0 231 231"><defs><style>.cls-1{fill:#fff;}</style></defs><g id="_3gyXz4.tif"><path d="M72.91,31.71v25.58h-17.83l.03,23.08.35.35c12.87.81,24.32,13.99,12.76,25.04-.3.28-.81.25-.72.68l8.06,7.6,8.14-7.6c-8.61-6.78-6.91-17.32,2.19-22.69,3.15-1.86,6.64-2.74,10.25-3.25v-23.23h-18.07v-25.58h41.07v25.58h-17.83v23.12l.39.31c11.25.66,22.51,11.14,15.2,22.57l20.57,11.39,20.06-11.39c-2.84-4.74-3.2-9.85,0-14.53,3.38-4.94,9.74-7.42,15.48-8.22l.11-23.24h-17.83v-25.58h41.07v25.58h-17.83v23.12l.39.32c6.68.44,15.21,4.95,17.04,11.82,2.83,10.59-7.92,17.81-17.21,18.59-.22.15-.36,4.61-.37,5.37-.01,2.61.31,5.28.14,7.9,7.24.16,16.98,5.72,17.81,13.52,1.07,10.1-8.96,16.12-17.81,16.98v15.49h17.83v25.81h-41.07v-22.06l-17.95-9.84-18.18,10.19v21.71h-41.07v-25.81h3.29l-5.78-5.38-5.72,5.26,3.05.12v25.81H31.84v-25.81h17.83l-.03-15.46c-6.92-.77-15.25-4.71-17.34-11.87-3.09-10.55,8.03-18.26,17.37-18.66l-.03-12.99-.35-.35c-10.25-.47-22.04-10.4-15.85-21.31,3.14-5.52,10.07-8.43,16.13-9.21l.1-23.25h-17.83v-25.58h41.07ZM67.74,36.87h-30.74v15.25h30.74v-15.25ZM113.97,36.87h-30.74v15.25h30.74v-15.25ZM191.18,36.87h-30.74v15.25h30.74v-15.25ZM49.86,85.75c-14.17,1.36-18.45,15.46-3.34,19.63,6.63,1.83,20.24-.07,21.19-8.57s-11.28-11.69-17.86-11.05ZM96.09,85.75c-5.96.58-14.94,5.27-12.44,12.54,2.13,6.19,11.54,8.28,17.29,7.81,6.39-.52,16.43-6.14,12.13-13.76-3.08-5.46-11.21-7.14-16.98-6.58ZM173.3,85.75c-14.13,1.36-18.39,15.48-3.34,19.63,7.24,1.99,22.17-.52,21.22-10.42-.71-7.33-11.92-9.78-17.88-9.2ZM132.04,117.6l-19.09-10.52c-3.46,2.33-7.44,3.58-11.55,4.16l-.1,13.16c1.96.01,3.97.49,5.81,1.11,2.14.72,4.01,1.91,6.02,2.89l18.91-10.8ZM173.11,124.41l-.1-13.16c-4.03-.63-7.99-1.77-11.34-4.17l-19.07,10.64,18.93,10.64c3.49-2.14,7.42-3.81,11.58-3.95ZM55.07,124.41c2.74-.05,5.28,1.03,7.83,1.83l8.83-8.52-8.85-8.3c-1.54.16-2.99.9-4.52,1.26-.77.18-3.33.2-3.43.92l.14,12.8ZM96.11,111.3l-8.01-1.87-8.6,8.49,8.82,8.33c2.39-.91,4.86-1.72,7.44-1.87l.28-.18.07-12.89ZM157.61,131.93l-20.42-11.16-20.4,11.39c3.09,4.38,3.32,10.36,0,14.66l20.35,11.34.53-.06,19.85-11.16c-2.6-4.32-3.07-8.44-.88-13.07.21-.45,1.25-1.54.97-1.94ZM75.61,121.36l-8.1,7.85c5.51,4.28,7.28,11.5,3.14,17.46-.94,1.35-2.2,2.29-3.12,3.63l7.88,7.41,8.29-7.61c-7.5-5.46-7.35-15.6,0-21.12l-8.09-7.62ZM50.1,129.4c-6.03.58-15.04,5.01-12.79,12.42,3.16,10.41,26.56,10.56,30.08.18,3.13-9.21-10.38-13.26-17.29-12.6ZM96.56,129.4c-5.95.53-15.55,5.1-12.9,12.53,3.65,10.25,25.67,10.45,29.81.39,3.81-9.27-9.95-13.54-16.91-12.92ZM173.53,129.4c-6.23.6-16.14,5.77-12.36,13.4,4.72,9.53,26.25,9.22,29.65-.8,3.14-9.26-10.36-13.27-17.29-12.6ZM101.3,154.91v15.49h14.67l15.45-8.72.39-.66-18.7-10.28c-3.64,2.22-7.52,3.77-11.81,4.17ZM158.91,170.4h14.2l-.03-15.46c-4.19-.58-8.12-1.83-11.63-4.2l-18.62,10.28.15.48,15.93,8.9ZM55.07,170.4h7.16l9.5-9.03-9.04-8.33-7.6,1.9-.03,15.46ZM96.14,154.91l-8.04-1.84-8.58,8.11.11.56,9.36,8.66h7.16v-15.49ZM67.74,175.56h-30.74v15.49h30.74v-15.49ZM113.97,175.56h-30.74v15.49h30.74v-15.49ZM191.18,175.56h-30.74v15.49h30.74v-15.49Z"/><polygon points="129.46 93.19 129.46 98.59 124.65 98.59 124.3 98.24 124.3 93.43 129.46 93.19"/><path d="M144.95,93.43c1.62.03,3.7-.75,5.16.12v4.69l-.35.35h-4.46l-.35-.35v-4.81Z"/><rect x="144.95" y="44.38" width="5.16" height="5.16"/><rect x="134.63" y="44.38" width="5.16" height="5.16"/><rect x="124.3" y="180.73" width="5.16" height="5.16"/><rect x="144.95" y="180.73" width="5.16" height="5.16"/><polygon points="129.46 44.38 129.46 49.55 124.3 49.55 124.3 44.73 124.65 44.38 129.46 44.38"/><polygon points="139.79 180.73 139.79 185.89 134.98 185.89 134.63 185.54 134.63 180.73 139.79 180.73"/><path d="M139.79,93.43v4.93c-.87.27-1.66-.04-2.46-.02-.88.03-1.98.7-2.7-.1v-4.81c1.79.06,3.38-.32,5.16,0Z"/><path class="cls-1" d="M157.61,131.93c.28.4-.75,1.49-.97,1.94-2.19,4.63-1.72,8.75.88,13.07l-19.85,11.16-.53.06-20.35-11.34c3.31-4.31,3.08-10.29,0-14.66l20.4-11.39,20.42,11.16ZM129.46,137.08h-5.16v4.81l.35.35h4.81v-5.16ZM139.79,137.08h-5.16v5.16h5.16v-5.16ZM150.11,137.08h-5.16v5.16h5.16v-5.16Z"/><path class="cls-1" d="M101.3,154.91c4.29-.4,8.17-1.95,11.81-4.17l18.7,10.28-.39.66-15.45,8.72h-14.67v-15.49Z"/><path class="cls-1" d="M191.18,175.56v15.49h-30.74v-15.49h30.74ZM183.44,180.73h-15.25v5.16h15.25v-5.16Z"/><path class="cls-1" d="M67.74,175.56v15.49h-30.74v-15.49h30.74ZM60,180.73h-15.25c-.03,1.21.04,2.43.01,3.65-.01.6-.47,1.14.11,1.52h15.14v-5.16Z"/><path class="cls-1" d="M113.97,175.56v15.49h-30.74v-15.49h30.74ZM106.47,180.73h-15.49v5.16h15.49v-5.16Z"/><path class="cls-1" d="M158.91,170.4l-15.93-8.9-.15-.48,18.62-10.28c3.51,2.37,7.44,3.63,11.63,4.2l.03,15.46h-14.2Z"/><path class="cls-1" d="M132.04,117.6l-18.91,10.8c-2.01-.98-3.88-2.17-6.02-2.89-1.84-.62-3.86-1.1-5.81-1.11l.1-13.16c4.11-.58,8.09-1.83,11.55-4.16l19.09,10.52Z"/><path class="cls-1" d="M191.18,36.87v15.25h-30.74v-15.25h30.74ZM183.44,41.8h-15.25v5.16h14.9s.52.43.59-.12c.02-.15-.24-.76-.25-1.16-.02-1.29.04-2.59.01-3.88Z"/><path class="cls-1" d="M67.74,36.87v15.25h-30.74v-15.25h30.74ZM60,41.8h-15.25v5.16h15.25v-5.16Z"/><path class="cls-1" d="M113.97,36.87v15.25h-30.74v-15.25h30.74ZM106.47,46.96v-4.81l-.81-.37-14.68.02v5.16h15.49Z"/><path class="cls-1" d="M173.53,129.4c6.93-.67,20.43,3.34,17.29,12.6-3.4,10.02-24.93,10.33-29.65.8-3.78-7.62,6.13-12.79,12.36-13.4ZM186.25,137.08h-20.65v5.16c4.52.22,9.01-.27,13.5-.25,1.1,0,6.58.69,7.05.01.14-.17-.14-.3-.14-.35v-4.22s.35-.27.23-.35Z"/><path class="cls-1" d="M173.11,124.41c-4.16.14-8.08,1.81-11.58,3.95l-18.93-10.64,19.07-10.64c3.35,2.4,7.31,3.54,11.34,4.17l.1,13.16Z"/><path class="cls-1" d="M50.1,129.4c6.91-.67,20.42,3.38,17.29,12.6-3.52,10.38-26.92,10.24-30.08-.18-2.25-7.41,6.76-11.84,12.79-12.42ZM62.58,137.08h-20.65c-.06.17.23.28.23.35v4.81h20.42v-5.16Z"/><path class="cls-1" d="M173.3,85.75c5.97-.57,17.17,1.88,17.88,9.2.96,9.9-13.98,12.42-21.22,10.42-15.06-4.15-10.79-18.27,3.34-19.63ZM186.02,93.43h-20.42v5.16h20.42v-5.16Z"/><path class="cls-1" d="M96.56,129.4c6.96-.62,20.72,3.65,16.91,12.92-4.14,10.06-26.16,9.86-29.81-.39-2.65-7.43,6.96-12,12.9-12.53ZM109.05,137.08h-20.65v5.16c1.67-.28,3.36-.28,5.06-.25,4.46.1,10.44.77,14.78.26.34-.04.6-.03.81-.36v-4.81Z"/><path class="cls-1" d="M49.86,85.75c6.58-.63,18.83,2.38,17.86,11.05s-14.56,10.4-21.19,8.57c-15.11-4.17-10.84-18.26,3.34-19.63ZM62.58,98.59v-5.05c-.21-.33-.47-.32-.81-.36-1.11-.13-2.83-.02-4.01,0-3.94.08-7.98.35-11.96.27-1.17-.03-2.4-.46-3.64-.26v5.4h20.42Z"/><path class="cls-1" d="M96.09,85.75c5.78-.56,13.9,1.12,16.98,6.58,4.3,7.63-5.74,13.24-12.13,13.76-5.76.47-15.16-1.62-17.29-7.81-2.5-7.27,6.47-11.96,12.44-12.54ZM88.4,98.36c.89.41,1.75.02,2.46.05,5,.2,12.58.76,17.38.2.34-.04.6-.03.81-.36v-4.69c-.21-.33-.47-.32-.81-.36-3.14-.37-6.5.25-9.64.26-2.11,0-4.22-.22-6.32-.26-1.29-.02-2.59.04-3.88.01v5.16Z"/><path class="cls-1" d="M75.61,121.36l8.09,7.62c-7.35,5.52-7.5,15.66,0,21.12l-8.29,7.61-7.88-7.41c.92-1.34,2.19-2.28,3.12-3.63,4.14-5.96,2.37-13.18-3.14-17.46l8.1-7.85Z"/><polygon class="cls-1" points="96.14 154.91 96.14 170.4 88.98 170.4 79.63 161.74 79.51 161.17 88.1 153.07 96.14 154.91"/><polygon class="cls-1" points="55.07 170.4 55.1 154.94 62.69 153.03 71.73 161.37 62.23 170.4 55.07 170.4"/><path class="cls-1" d="M96.11,111.3l-.07,12.89-.28.18c-2.58.15-5.06.97-7.44,1.87l-8.82-8.33,8.6-8.49,8.01,1.87Z"/><path class="cls-1" d="M55.07,124.41l-.14-12.8c.11-.72,2.66-.74,3.43-.92,1.53-.36,2.98-1.1,4.52-1.26l8.85,8.3-8.83,8.52c-2.55-.8-5.09-1.88-7.83-1.83Z"/><rect x="134.63" y="137.08" width="5.16" height="5.16"/><rect x="144.95" y="137.08" width="5.16" height="5.16"/><polygon points="129.46 137.08 129.46 142.24 124.65 142.24 124.3 141.89 124.3 137.08 129.46 137.08"/><rect x="168.18" y="180.73" width="15.25" height="5.16"/><path d="M60,180.73v5.16h-15.14c-.58-.38-.12-.92-.11-1.52.03-1.21-.04-2.44-.01-3.65h15.25Z"/><rect x="90.98" y="180.73" width="15.49" height="5.16"/><path d="M183.44,41.8c.03,1.29-.03,2.59-.01,3.88,0,.4.26,1.01.25,1.16-.07.55-.56.12-.59.12h-14.9v-5.16h15.25Z"/><rect x="44.75" y="41.8" width="15.25" height="5.16"/><polygon points="106.47 46.96 90.98 46.96 90.98 41.8 105.65 41.79 106.47 42.15 106.47 46.96"/><path d="M186.25,137.08c.12.08-.23.3-.23.35v4.22c0,.06.28.19.14.35-.46.68-5.95,0-7.05-.01-4.49-.02-8.99.47-13.5.25v-5.16h20.65Z"/><path d="M62.58,137.08v5.16h-20.42v-4.81c0-.07-.3-.18-.23-.35h20.65Z"/><rect x="165.6" y="93.43" width="20.42" height="5.16"/><path d="M109.05,137.08v4.81c-.21.33-.47.32-.81.36-4.35.51-10.33-.16-14.78-.26-1.69-.04-3.39-.03-5.06.25v-5.16h20.65Z"/><path d="M62.58,98.59h-20.42v-5.4c1.24-.21,2.47.23,3.64.26,3.98.09,8.02-.19,11.96-.27,1.18-.02,2.91-.13,4.01,0,.34.04.6.03.81.36v5.05Z"/><path d="M88.4,98.36v-5.16c1.29.03,2.59-.04,3.88-.01,2.09.04,4.21.26,6.32.26,3.14,0,6.5-.63,9.64-.26.34.04.6.03.81.36v4.69c-.21.33-.47.32-.81.36-4.8.56-12.38,0-17.38-.2-.71-.03-1.57.36-2.46-.05Z"/></g></svg>