<?xml version="1.0" encoding="UTF-8"?><svg id="Layer_1" xmlns="http://www.w3.org/2000/svg" viewBox="0 0 231 231"><defs><style>.cls-1{fill:none;}</style></defs><polygon class="cls-1" points="61.98 93.48 64.69 89.99 58.61 85.28 54.05 81.75 47.02 76.3 44.32 79.8 51.76 85.56 56.35 89.12 61.98 93.48"/><path d="M64.72,55.63l7.67,7.21c8.88-9.01,19.69-15.69,32.16-18.41,20.38-4.45,40.29,1.28,55.61,15.1.53.48,3.15,3.33,3.48,3.33l7.6-7.29c3.39,3.73,6.4,7.8,8.97,12.13l4.6-3.54c-2.05-3.36-4.34-6.59-6.83-9.64-.37-.45-2.51-2.72-2.57-2.95-.05-.19,0-.33.14-.46.81-1.03,7.09-6.68,7.15-7.29.01-.14-.01-.27-.09-.39-7.62-7.75-16.48-14.36-26.3-19.07-22.94-11-50.36-11.61-73.71-1.37-11.03,4.83-20.86,11.93-29.31,20.45l-.08.24,7.44,7.75c-3.17,3.54-6.05,7.34-8.6,11.35l4.56,3.53c2.39-3.79,5.12-7.38,8.11-10.65ZM61.56,43.41c14.73-13.47,33.65-21.22,53.68-21.99,20.1-.78,40.89,6.47,56.18,19.4.59.5,2.71,2.21,3.01,2.66.1.15.21.26.14.46l-11.06,10.96c-7.12-6.48-15.62-11.45-24.81-14.41-23.05-7.42-48.49-1.82-66.28,14.4l-11.09-11.09.23-.38Z"/><path class="cls-1" d="M210.38,114.99c-.04-.19-.06-.61-.26-.68l-15.41,2.75c1.29,10.92-.08,22.19-4.02,32.46l14.52,6.47c4.05-10.73,6.12-21.97,5.76-33.47-.07-2.21-.18-5.4-.59-7.53Z"/><path d="M203.71,94.06c-.21-1.53-.51-3.06-.73-4.59l-10.78,1.58c-1.09-5.52-2.89-10.86-5.2-15.97l-5,2.95c1.96,4.46,3.48,9.12,4.52,13.9l-.09.23-10.27,1.92c.15,1.52.51,3.02.68,4.53.99,8.83.42,17.38-2.07,25.94-.99,3.4-2.39,6.65-3.63,9.96l9.57,4.36c-2.1,4.3-4.64,8.37-7.54,12.16l4.21,3.98c3.36-4.31,6.29-8.97,8.63-13.91l10.11,4.09c1.48-3.31,2.87-6.69,3.97-10.15,4.14-12.99,5.48-27.47,3.64-40.97ZM193.08,137.71l-14.52-6.47c3.94-10.27,5.31-21.54,4.02-32.46l15.41-2.75c.2.07.22.48.26.68.41,2.13.52,5.32.59,7.53.36,11.5-1.71,22.74-5.76,33.47Z"/><path d="M155.77,171.2l-.44-.19-6.21-7.95c-10.59,8.48-23.39,14.07-37.1,14.69-41.46,1.86-72.51-35.81-63.06-76.12,1.03-4.39,2.71-8.58,4.32-12.77l-9.18-3.95-.34-.33c-.08-.23,1.86-3.77,2.17-4.3,1.19-2.09,2.51-4.11,3.92-6.08l-4.13-4.08c-2.8,3.81-5.29,7.87-7.33,12.17l-10.08-4.14c-2.55,5.88-4.74,11.98-6.16,18.26-10.24,45.37,16.35,91.69,60.94,104.93,26.55,7.88,53.78,3.28,76.45-12.1,1.26-.86,5.19-3.47,6-4.43.11-.13.29-.26.23-.45l-6.38-8.49c1.24-1.37,2.72-2.5,4.03-3.79,2.56-2.52,4.95-5.21,7.15-8.05l-4.21-3.98c-3.13,4.09-6.68,7.85-10.62,11.16ZM157.56,183.68c-4.02,2.66-8.07,5.27-12.43,7.36-39.89,19.23-87.69,4.02-109.03-34.54-11.95-21.59-13.79-47.44-4.78-70.56l.26-.22,14.33,6.15c-1.13,3.56-2.35,7.12-3.1,10.79-11.72,57.78,51.18,101.61,101.63,70.75.56-.34,3.33-2.41,3.69-2.3l9.55,12.32-.11.23Z"/></svg>