<?xml version="1.0" encoding="UTF-8"?><svg id="Layer_1" xmlns="http://www.w3.org/2000/svg" viewBox="0 0 231 231"><path d="M112.84,14.72c1.78,1.31,2.74,3.51,2.82,5.68l8.48,2.3c3.16-5.39,10.83-4.69,12.69,1.42.14.48.16,1.96.63,2.1,1.62-.14,3.25-.56,4.87-.71,44.17-3.99,76.29,41.44,56.84,81.63-2.16,4.46-5.07,8.47-8.06,12.39l9.15,3.89c1.17-.86,2.12-1.94,3.58-2.37,7.66-2.28,12.33,7.61,6.33,12.13-3.01,2.27-6.31,1.45-9.2-.5l-4.71,2.7c-.48.53.24,1.95.24,2.81,0,5.31-6.08,8.73-10.62,5.95-3.83-2.34-4.43-7.61-1.27-10.82.8-.81,1.93-1.14,2.6-1.9l-1.36-6.54c-7.74,6.6-17.19,11.52-27.29,13.35-2.24.41-5.12.82-7.38.95-.82.05-5.21-.17-5.44.17.18,1.19-.71,2.19-.46,3.19l7.67,5.38c.84.47,1.25-.45,1.92-.88,7.82-5.01,15.36,6.6,7.25,11.77-.65.41-1.58.37-1.45,1.28l4.18,21.18c1.69.22,3.03.68,4.53,1.45l10.23-11.68c.2-.4-.77-1.46-.99-1.91-2.56-5.51,2.95-11.53,8.68-9.4,4.89,1.82,6.17,8.48,2.08,11.87-2.61,2.16-5.3,1.91-8.25.63l-10.22,11.68c-.34.72.53,1.5.76,2.13,2.29,6.18-4.82,11.67-10.33,8.15-4.74-3.02-3.89-10.53,1.49-12.3l-4.14-22.06c-1.32.2-2.34-.57-3.52-.91l-21.87,29.39-.04.3c.6.82,1.29,1.51,1.69,2.47,2.66,6.24-4.47,12.2-10.21,8.4-5.27-3.49-3.36-11.68,2.82-12.58l.15-.21v-16.69c-4.9-.8-7.24-5.53-5.4-10.05l-6.98-4.4c-1.85,1.66-4.3,2.7-6.79,1.84l-9.4,20.47c-.07.77.91,1.17,1.44,1.8,2.69,3.16,1.79,8.07-1.65,10.29-.53.34-1.68.53-1.79,1.11l.72,10.28c.83.51,1.67.58,2.56,1.1,4.79,2.78,4.3,10.18-.8,12.28-7.71,3.16-13.46-7.23-6.7-12.13.81-.59,1.6-.71,2.39-1.23l-.69-10.3c-2.2-.34-4.27-1.55-5.36-3.53l-9.37,3.48c-.56.33-.24,1.63-.3,2.23-.79,7.02-9.9,8.77-13.03,2.72-3.48-6.7,4.74-13.43,10.49-8.68.49.41,1.25,1.67,1.73,1.69.29.02,3.63-1.31,4.25-1.54.73-.27,5.17-1.95,5.36-2.25-.23-2.18.36-4.13,1.8-5.79.42-.48.98-.71,1.28-1.26l-12.44-23.34c-.25-.11-.42.02-.62.15-.78.52-2.62,2.6-3.44,3.44-8.92,9.11-17.72,18.35-26.6,27.52-11.76,9.06-25.46-6.71-14.85-17.2l37.36-28.54-8.4-15.99c-.47-.39-2.73.07-3.62,0-1.95-.17-3.74-1.37-4.8-3l-12.41,6.44c-.27.42.23,1.17.28,1.72.44,4.5-3.24,8.28-7.76,7.72l-2.66,9.57c3.76,2.19,5.02,6.99,2.18,10.5-3.29,4.07-9.67,3.32-11.71-1.51-1.91-4.52.95-8.83,5.57-9.7.66-.13,1.57.31,1.8-.55l2.45-8.78c-.04-.44-.84-.7-1.18-1-2.69-2.37-2.93-5.16-1.99-8.5l-8.38-6.31c-.47-.12-.67.44-1.09.65-7.86,4.02-14.03-6.1-8.1-11.17,4.94-4.23,12.07-.42,11.49,5.88-.07.8-.87,2.3-.63,2.8l8.16,6.17c.93-.36,1.47-1.1,2.52-1.46,2.42-.84,4.87-.2,6.88,1.28.46.34.72,1.06,1.4.87l12.25-6.51c-.57-2.72-.07-4.65,1.65-6.76.23-.28.84-.45.82-1l-10.33-18.44c-.36-.63-.88-.19-1.43-.18-2.54.03-3.93.09-5.92-1.65-1.42-1.24-2.28-3.43-2.25-5.29.02-.93.38-1.74.44-2.62l-5.45-3.87c-.84-.7-1.37.27-2.14.65-1.83.9-3.63,1.21-5.59.56-5.32-1.78-6.26-9.36-1.54-12.39s10.68.22,10.77,5.71c.01.9-.63,2.36-.11,2.99l5.45,3.79c.81.14,1.68-.79,2.49-1.12,5.29-2.15,10.12,2.45,9.56,7.8l12.38,4.11c.45.03.99-1.11,1.35-1.47,1.21-1.21,2.63-2.03,4.34-2.27l-.53-23.22c-.08-.35-1.42-.28-1.82-.39-3.9-1.02-5.91-5.82-4.35-9.42.28-.64,1.21-1.51,1.06-2.12l-4.39-5.76c-.56-.5-1.05.07-1.5.15-10.08,1.64-11.3-11.72-3.35-13.49,6.6-1.47,11.13,6.03,6.96,11.24l4.59,6.1.34.17c4.7-1.57,9.48,1.45,9.69,6.46.05,1.31-.86,2.6-.91,3.78l17.85,14.38c.36,0,.59-3.19.68-3.66,3.4-18.14,15.57-33.87,32.34-41.51.68-.6,0-.76-.27-1.34-.18-.39-.47-1.04-.54-1.45-.15-.84.18-2.3-.52-2.73l-7.85-1.95c-1.66,3.58-6.03,5.44-9.64,3.48l-3.94,4.22c-.16.59.37,1.12.47,1.63,1.3,6.33-5.29,11.18-10.7,7.44-3.07-2.13-3.67-6.23-1.97-9.44l-2.37-2.44c-3.74,2.08-9,.09-10.03-4.16-2.17-9,10.06-12.46,13.15-4.1,3.92.22,7.83-.45,11.75-.48,1.02-4.99,6.74-7.57,10.99-4.43ZM105.57,17.61c-2.67,3.5.76,8.07,4.76,6.49,2.84-1.12,3.3-5.07.96-7.01-1.54-1.28-4.49-1.09-5.72.52ZM83.01,17.77c-6.03.73-3.56,10.28,2.26,7.69,4.18-1.86,2.51-8.27-2.26-7.69ZM99.67,21.4l-8.9.51c-.44.15-.43,1.52-.57,1.97-.22.72-.7,1.31-.92,2.01l2.2,2.16c1.91-.65,3.7-1.21,5.73-.69.59.15,1.69.95,2.18.83l3.56-3.86-1.07-2.91c-.3-.22-1.75-.04-2.22-.02ZM129.71,21.93c-2.62.31-4.17,2.94-3.35,5.43.13.4.79,1.46,1.17,1.56.41.11,2.84-.93,3.49-1.14,1.84-.6,3.7-.11,3.21-2.68-.38-1.98-2.57-3.4-4.52-3.17ZM92.35,31.18c-4.06,4.11,2.86,10.02,6.27,5.27,2.95-4.1-2.85-8.73-6.27-5.27ZM176.19,44.59c-17.94-13.61-43.74-12.13-60.11,3.18-15.5,14.48-19.69,39.19-8.78,57.66.32.55,1.59,2.76,2.07,2.79.22.01.92-.17,1.23-.22.67-.12,5.04-1.01,5.18-1.24-1.14-5.8,2.54-11.63,8.36-12.72l.17-.37-2.25-19.83c-1.37-.31-2.74-.33-4.08-.81-6.2-2.21-8.81-9.72-5.69-15.45,3.31-6.08,12.35-7.45,17.09-2.29.54.58,2.02,3.1,2.44,3.18l10.41-2.26.91-.4c-.92-10.5,12.27-15.99,19.09-7.67,1.88,2.3,2.75,5.82,2.22,8.74-.19,1.04-1.07,2.41-1.19,3.16-.04.26.03.52.2.72l6.23,4.92c1.11-.27,1.87-1.17,3-1.64,8.31-3.48,16.99,4.46,14.48,13.03-1.45,4.95-6.71,8.39-11.82,7.71-.28.15-1.65,3.56-1.64,4,0,.65,1.06,1.06,1.56,1.53,3.94,3.75,4.92,9.23,1.97,13.93-.28.45-1.21,1.23-1.09,1.65l6.72,7.56.18-.12c2.61-3.21,5.11-6.55,6.94-10.27,9.9-20.15,3.98-44.96-13.8-58.45ZM53.86,36.23c-5.19.8-4.28,8.81,1.21,8.08s4-8.88-1.21-8.08ZM149.54,50.55c-2.29,2.22-2.26,6.12-.16,8.44,2.75,3.02,8.2,2.3,9.94-1.47,2.84-6.17-4.97-11.64-9.78-6.98ZM64.29,54.71c-1.46,1.58-1.27,4.41.3,5.82,3.35,3.02,8.53-.77,6.28-5.02-1.25-2.36-4.78-2.76-6.58-.8ZM120.84,56.87c-7.51,1.04-6.31,12.59,1.22,12.08,8.32-.56,7.02-13.23-1.22-12.08ZM135.62,73.04c.41.36,1.39,1.39,1.81,1.35.32-.03,2.44-1.38,3.28-1.62.7-.21,2.2-.53,2.89-.56.75-.03,1.84.48,2.34-.19l2.55-7.61c-.91-1.02-2.13-1.72-2.99-2.79-.39-.48-1.5-2.63-1.63-2.71-.24-.15-.53-.11-.8-.08-1.45.15-4.19.94-5.76,1.31-.71.17-4.76,1.08-4.94,1.39.16,1.23.14,2.65-.13,3.86-.25,1.12-1.05,2.18-1.2,3.26.08.31,4.02,3.91,4.58,4.4ZM73.38,63.05l-1.2-.54-3.59,2.03.16,5.95c.05,1.93.14,3.88.19,5.78.1,3.78-.2,7.57.26,11.33,1.02.52,2.17.75,3.13,1.4s1.4,1.66,2.3,2.21l16.39-6.42.29-6.86-.25-.67-17.68-14.22ZM166.11,75.08c-.16-2.37.36-4.4,1.39-6.49l-6.26-5.15c-.57-.51-2.9,1.17-2.86,1.59l3.55,10.75.48.4,3.7-1.1ZM152.14,65.54c-.31.09-.38.33-.5.59-.68,1.45-1.74,4.92-2.15,6.54s.3,1.14,1.16,1.89c1.35,1.17,2.13,2.64,3.16,4.06l5.99-1.8-3.35-11.13c-.13-.2-.34-.16-.54-.19-.54-.07-3.37-.08-3.78.04ZM175.32,68.09c-6.01,1.11-5.98,11.07.34,11.88,9.82,1.26,9.3-13.67-.34-11.88ZM28.14,71c-2.56-2.45-7.02-.65-7.01,2.92,0,3.77,4.45,5.62,7.08,2.9,1.5-1.54,1.49-4.33-.07-5.83ZM129.31,71.92c-1.03-1.07-1.88.17-2.88.68-1.74.88-2.29.02-2.11,2.59.31,4.44,1.09,9.49,1.63,13.94.18,1.47.5,2.93.57,4.41,1.02.27,2.07.3,3.08.63.77.25,1.71,1.06,2.55.85.46-.87,3.63-3.82,3.72-4.48.08-.58-.75-1.15-1.03-1.62-1.72-2.86-2.27-5.95-1.28-9.18.28-.91.8-1.71,1.2-2.56l-5.46-5.26ZM139.59,87.35c5.39,5.54,14.39-2.97,8.36-8.81-5.6-5.42-13.96,3.06-8.36,8.81ZM166.99,78.23c-.38-.38-2.43.26-2.99.44-.42.14-1.04.27-.91.82l2.59,8.11c1.26.53,2.56-.33,3.89.17l1.57-4.53c-.82-.87-1.87-1.49-2.64-2.44-.51-.63-1.2-2.28-1.5-2.57ZM154.57,81.46c.06,1.96-.04,3.71-.67,5.58l.1.27,6.1,3.87,3.59-2.69-2.81-8.6-.96-.05-5.36,1.61ZM39.67,88.97c2.02,2.07,6.15,1.16,6.87-1.78.86-3.51-2.38-6.32-5.71-4.8-2.54,1.16-3.06,4.63-1.16,6.58ZM91.38,86.51l-1.09.08-15.18,5.91c1.25,5.13-2.7,10.03-8.06,8.88l-.19.15-3.51,9.19c-.11.88,1.4,1.58,1.96,2.3.99,1.28,1.64,3.44,1.43,5.05-.09.71-.83,1.79-.29,2.41l15.83,10.7,19.89-15.08c.03-.32-2.51-3.96-2.91-4.64-3.54-5.95-6.16-12.82-7.29-19.68-.29-1.76-.46-3.51-.6-5.29ZM61.48,93.41l-12.55-4.35-2.05,2.45,10.59,19.03c.84.07,1.68-.22,2.51-.3.43-.04.62.39,1.08-.22l3.5-9.35c.04-.44-.96-.97-1.24-1.28-1.54-1.76-1.93-3.67-1.84-5.98ZM158.14,94.14l-6.05-3.84c-1.04.45-1.95,1.47-3,2.06-2.98,1.68-5.65,1.73-8.88.78-.53-.16-.97-.76-1.59-.21-.54.77-3.74,3.99-3.82,4.53-.1.73.7,1.27,1.01,1.88,2.69,5.26,1.04,11.61-4.14,14.52-2.66,1.49-5.12,1.51-8.08,1.13-.23.15-2.11,4.51-2.23,5.03-.06.25-.19.41-.04.68.3.57,5.78,3.51,6.73,3.96,15.72,7.4,34.33,5.43,48.2-4.97.72-.54,4.86-4.01,4.91-4.52.02-.16-.01-.31-.1-.44l-6.56-7.22c-.44-.12-2.47,1.05-3.19,1.27-7.49,2.29-14.67-4.02-13.88-11.7.06-.6.86-2.67.69-2.95ZM65.56,91.64c-1.43,1.33-1.57,4.03-.34,5.55,2.95,3.65,8.73.24,6.92-4.2-1.03-2.52-4.65-3.15-6.58-1.35ZM163.86,94.18c-5.43,5.79,2.81,13.83,8.34,8.8,6.29-5.72-2.84-14.66-8.34-8.8ZM130.58,100.16c-6.9-6.47-14.92,5.68-6.96,9.76,6.31,3.24,11.8-5.22,6.96-9.76ZM116.69,108.98c-.27-.24-5.38,1.06-6.13,1.33,1.34,1.66,2.66,3.38,4.15,4.9.71.72,3.47,3.32,4.18,3.6.23.09.46.15.71.09l1.8-4.76c-1.88-1.36-3.94-2.87-4.71-5.16ZM18,111.91c-2.83-1.7-6.22.02-6.34,3.35-.15,4.18,5.08,5.69,7.36,2.51,1.23-1.72.87-4.73-1.01-5.86ZM59.48,113.15c-6.29.76-3.87,10.3,2.01,7.82,4.29-1.81,2.29-8.34-2.01-7.82ZM189.61,121.1l-2.04,2.23,1.62,7.72c2.07.21,3.59.91,5.23,2.12l4.93-3.05c.22-.35-.27-1.63-.29-2.26-.02-.74.54-2.4.2-2.73l-9.65-4.05ZM81.03,131.96l-15.22-10.21c-.42-.54-1.94,1.08-2.04,1.32-.35.83,7.62,14.01,8.35,15.91l8.9-6.53v-.49ZM133.61,144c-1.32-1.53-1.84-3.45-1.69-5.46.04-.59.59-1.14.1-1.54-8.53-2.79-16.48-7.21-23-13.39l-14.92,15.32,10.25,7.28c.98.18,1.47-.89,2.31-1.42,3.5-2.17,8.25-.8,9.9,2.95.23.53.4,1.79.6,2.12.35.6,2.55.31,3.26.36,2.5.15,5.09.32,7.59.38,1.5.03,3-.04,4.49,0,.27-.07,2.27-4.7,2.3-5,.09-.95-.77-1.08-1.2-1.58ZM205.18,123.65c-4.73.81-4.2,8.27,1.01,8.09,5.56-.19,4.84-9.1-1.01-8.09ZM32.09,127.31c-2.41,2.81-.64,6.99,3.04,6.93,3.19-.05,4.98-3.47,3.4-6.2-1.26-2.18-4.79-2.66-6.44-.73ZM188.71,134.15c-4.71.89-4.09,8.05.69,8.11,5.99.07,5.15-9.21-.69-8.11ZM135.31,137.76c-.98.82-.52,2.98.16,3.94,1.88,2.7,6.24,2.11,7.23-1.07.15-.47.39-1.56-.22-1.78l-7.17-1.09ZM106.55,156.4c-1.87-1.04-3.3-3.79-3.24-5.91.02-.72.84-2.52.58-2.9l-10.8-7.33c-.23-.05-.37.08-.54.18-.58.35-2.52,2.52-3.17,3.17-.45.45-.9,1.1-1.34,1.55-2.71,2.75-5.64,5.37-8,8.41l13.05,23.91c1.53-.59,2.68-.46,4.24-.13l9.22-20.94ZM135.36,150.76c2.66.37,5.38.08,8.06.17,2.44.08,5.61.67,7.97.38.66-.08.67-.37.77-.98l-8.53-5.87c-2.06,1.54-4.04,2.01-6.62,1.79l-1.65,4.5ZM113.21,147.75c-3.93-3.82-9.74,2.42-5.66,6.03s9.39-2.41,5.66-6.03ZM27.25,148.81c-3.04.52-3.97,5-1.67,7.01,3.55,3.11,8.83-1.25,6.11-5.38-1.03-1.56-2.65-1.94-4.44-1.63ZM155.87,149.73c-2.21,1.98-1.41,5.94,1.41,6.9,3.48,1.17,6.59-2.11,5.14-5.5-1.07-2.5-4.54-3.19-6.55-1.39ZM117.37,152.04c-.3.09-.87,1.46-.28,1.69l6.59,4.2c1.41-.8,2.65-1.79,4.34-1.93.77-.06,1.37.28,2.08.1l1.62-3.26-14.36-.8ZM134.5,159.58c.22.22.57.21.86.16,1.7-.32,4.71-1.59,6.5-2.2,3.23-1.09,6.41-2.33,9.66-3.37.71-.41.14-.98-.5-1.06-2.87-.38-6.65.05-9.61-.16-1.54-.14-3.15-.32-4.69-.38-.53-.02-1.71-.09-2.14.04-.73.22-1.64,3.69-2.25,4.4,0,.14,1.51,1.51,1.77,1.8.21.24.26.63.4.77ZM152.71,156.04l-17.01,5.65c-.32.38-.11,1.85-.21,2.51-.39,2.68-2.91,5.23-5.58,5.65l-.15.21v16.88c1,.16,2.08,1.16,2.77,0l21.2-29.14-1.03-1.76ZM131.31,159.89c-3.49-2.66-7.84.5-6.54,4.63s8.53,3.2,7.88-2.09c-.09-.74-.74-2.09-1.34-2.54ZM184.37,162.21c-5.14.62-4.38,8.84,1.2,8.08,5.03-.69,4.27-8.75-1.2-8.08ZM94.77,179.95c-5.11.79-4.63,8.4.86,8.1,5.59-.31,4.38-8.91-.86-8.1ZM162.21,191.24c2.33,2.3,6.71.9,7-2.37s-2.66-5.46-5.72-4.27c-2.56.99-3.24,4.71-1.29,6.64ZM72.15,188.64c-5.3.59-4.27,8.88,1.21,8.08,5.05-.74,4.37-8.7-1.21-8.08ZM127.71,189.72c-4.68.75-4,8.43,1.2,8.09s4.97-9.07-1.2-8.09ZM95.68,204.39c-.79.18-1.91,1.14-2.32,1.85-2.12,3.69,1.88,7.58,5.6,5.6s1.84-8.61-3.28-7.44Z"/></svg>