<?xml version="1.0" encoding="UTF-8"?><svg id="Layer_1" xmlns="http://www.w3.org/2000/svg" viewBox="0 0 231.62 231.62"><defs><style>.cls-1{fill:#fff;}</style></defs><g id="ccPR72.tif"><path d="M178.11,62.85c2.96,12.04,5.44,25.07-3.42,35.28-7.56,8.71-18.95,9.5-29.65,7.34.64,1.26,2.14,7,2.96,7.43.69.36,3.68.63,4.71.75,2.98.34,13.71,1.7,15.86,1.2,3.37-.78,3.54-2.77,8.03-1.21,8.88,3.09,5.95,17.04-4.37,15.28-1.26-.21-2.6-1.31-3.58-1.53-1.74-.4-11.38.67-13.89.93s-4.88.67-7.29,1.07c-.49,3.65-2.51,6.77-4.04,10.02l12.69,15.51c2.86,1.54,5.4,1.73,7.06,4.88,4.98,9.47-8.33,16.56-13.65,8.19-.91-1.43-.95-3.19-1.92-4.56l-15.97-12.54c-2.99,1.87-6.27,3.33-9.73,4.07l-2.12,19.91c1.03,3.99,3.1,5.61,1.11,9.94-3.76,8.21-16.62,4.54-14.98-5.09.22-1.27,1.3-2.6,1.53-3.58.42-1.82-.67-11.32-.93-13.89-.24-2.37-.63-4.76-1-7.11l-7.52-2.61c1.94,9.97,1.54,19.88-5.47,27.78-9.64,10.87-24.53,8.54-37.16,5.3,2.87,11.39,5.41,25.52-3.24,35.12-1.07,1.19-2.43,2.4-4.12,1.38-2.91-1.76,2.97-6.1,3.56-8.1l-30.66-30.66c-2.11.58-6.41,6.41-8.19,3.47-1.35-2.24,1.23-3.95,2.78-5.11,10.14-7.56,22.36-4.92,33.73-2.25-2.75-11.53-5.38-24,2.59-34.06,7.53-9.51,18.75-10.99,30.14-8.56l-2.64-7.5c-2.45-.38-4.95-.75-7.42-1.02s-11.63-1.35-13.48-.86c-2.82.74-2.96,2.46-6.89,1.45-7.8-2.02-8.16-13.3-.28-15.43,4.74-1.28,5.65,1.64,9.05,1.58,1.62-.03,3.79-.58,5.46-.71,1.82-.14,13.3-.72,13.82-1.6.57-3.71,2.98-6.87,3.94-10.35l-12.24-15.22c-2.71-1.28-5.37-1.58-7-4.42-4.55-7.94,5.1-16.04,12-10.29,2.24,1.87,2.12,4.55,3.44,6.11,2.34,2.77,10.93,9.29,14.2,11.71.39.29.77.6,1.22.8l10.35-4.26,1.97-20.64c-1.76-3.18-2.54-5.68-.73-9.07,4.35-8.2,17.26-3.23,14.55,6.02-.4,1.37-1.49,2.91-1.49,4.33,0,2.78.76,6.66,1.05,9.55.32,3.25.23,6.61,1.09,9.82l7.44,2.96c-1.53-8.61-1.8-17.37,3.27-24.86,9.32-13.76,25.11-11.97,39.35-8.22-2.23-9.45-4.79-21.15-.07-30.25.6-1.15,3.94-5.91,4.93-6.32,1.15-.47,2.22-.47,3,.57,1.5,2.49-3.38,5.23-3.97,7.68l30.21,30.56h.66c2.23-.78,5.41-5.93,7.71-3.62,2.53,2.54-3.99,6.47-5.88,7.46-9.34,4.88-20.73,2.39-30.46.06ZM174.02,33.53c-.26,3.01-1.33,6.58,1.23,8.83l19.24,18.96,6.48-.33.17-.87-27.11-26.59ZM186.97,60.46l-12.27-12.62c.1,3.49,1.28,6.81,2.12,10.15l10.15,2.46ZM113.24,57.11c-1.63.28-3.23,1.8-3.35,3.53-.17,2.39,2.26,4.02,2.08,6.46l-2.62,24.51c.17,3.54,5.18,3.97,7.5,2.22,2.1-1.58.73-3.49.56-5.58-.27-3.29-.39-6.6-.69-9.88-.37-4.02-2.04-10.31-.7-14,.58-1.61,1.66-1.99,1.37-4.04-.26-1.89-2.29-3.53-4.16-3.21ZM176.06,86.04l.52-6.8c-5.28-5.29-10.53-10.62-15.87-15.86-.48-.47-.72-1.1-1.19-1.54s-3.58-3.27-3.82-3.34c-.79-.23-6.59-.15-6.92.27l27.27,27.27ZM173.25,61.57l-10.15-2.46,12.1,12.61c.7-.47.33-.51.27-.94-.42-3.13-1.46-6.16-2.23-9.21ZM153.9,71.03l-9.88-10.41c-.6-.27-4.5,2.76-5.11,3.46l10.07,10.35.5-.15c.89-1.66,2.63-2.76,4.42-3.26ZM136,67.63c-.87,1.26-2.89,4.79-2.51,6.23.35,1.31,7.82,7.36,8.99,9.11l4.58-4.21-11.06-11.12ZM85.76,98.59c1.7.54,2.18-1.37,3.01-2.15.61-.57,2.27-1.55,2.57-2.21.46-1.03-1.85-1.94-2.4-2.39-2.94-2.4-12.5-9.77-13.77-12.49-.67-1.42-.39-2.86-1.91-3.88-3.39-2.3-7.99,1.94-4.96,5.64,1.23,1.49,4.7,1.25,5.99,3.22l11.47,14.27ZM155.87,74.86c-4.03.42-2.82,4.94-5.54,7.1l-14.35,11.57c-.62,1.13.73,1.38,1.39,2.04,1.2,1.21,2.37,2.4,3.4,3.75,4.56-5.31,8.63-11.16,13.57-16.09,1.18-.82,2.69-.88,3.89-1.57,3.34-1.92,1.68-7.24-2.36-6.81ZM133.78,89.79l5.1-4.26-6.13-5.97c-.17,3.52.06,6.84,1.02,10.23ZM163.79,80.93c-.26,2.21-2.44,3.1-3.39,4.9l10.33,10.08,3.59-4.87-10.53-10.11ZM166.84,99.32l-.31-1.19-10.46-10.36c-.35-.06-3.75,3.97-3.84,4.31-.13.47.06.63.29.97,1.74,2.6,6.2,5.5,8.21,8.17,1.41.65,4.67-1.36,6.11-1.9ZM105.14,91.83c-10.06,2.34-18.24,10.93-21.14,20.8,9.85-.4,10.23,17.1.34,17.05,2.4,9.92,10.97,18.18,20.8,20.8.31-9.61,16.94-9.68,17.22,0,9.75-3.05,17.88-10.89,20.63-20.79-9.51-.22-9.65-17.12,0-17.05-2.62-9.75-10.91-18.34-20.8-20.8-.14,9.51-17.08,9.63-17.05,0ZM149.29,102.07c1.67.16,3.73,0,5.46,0,.14,0,.6.88.51-.17l-5.96-5.97-4.26,4.94c0,.34,3.77,1.15,4.26,1.19ZM86.93,123.76c.7-1.82.68-4.54-.71-6.01-1.69-1.78-3.41-.51-5.46-.35-3.29.27-6.6.39-9.88.69-4.02.37-10.31,2.04-14,.7-1.61-.58-1.98-1.65-4.04-1.37-4.34.6-4.05,7.31.32,7.51,2.11.09,4.18-2.04,6.47-2.07,1.96-.02,4.76.84,6.82,1.02,6.02.52,12.08.63,18.05,1.7.32-.02,1.43-.46,1.67-.65.05-.04.74-1.1.77-1.17ZM141.06,124.45c.41.42,1.49.93,2.09.97,5.75-.92,11.61-1.03,17.4-1.54,3.18-.28,6.22-1.52,9.44-.57,1.34.4,2.68,1.68,4.16,1.58,5.19-.33,4.54-8.76-1.43-7.26-1.11.28-2.14,1.3-2.98,1.45-1.06.2-3.58.1-4.77.03-7.23-.41-14.86-1.79-22.12-2.4-3.06.27-3.72,5.76-1.79,7.72ZM82.29,141.28c-3.34-.9-6.77-1.2-10.23-1.02l5.96,6.05c.91.07,3.48-4.16,4.27-5.03ZM65.5,141c-.96.13-5.22,1.65-5.01,2.8l11.02,10.77c.67-.93,3.82-3.95,3.58-4.86l-8.3-8.44c-.4-.4-.79-.33-1.29-.26ZM140.77,142.99c-1.07.78-1.69,2-2.54,2.91-.62.66-3.02,1.67-2.24,2.89.65.5,1.41.84,2.05,1.37,2.49,2.03,13.27,10.48,14.13,12.47.36.83.33,1.64.64,2.43,1.43,3.7,7.13,2.74,7.25-1.11.13-4.29-4.56-3.49-6.85-5.77l-12.43-15.18ZM86.22,143.32l-12.28,15.01c-1.28,1.66-4.57,1.46-5.65,2.88-2.82,3.73,1.75,8.23,5.3,5.3,1.49-1.23,1.43-4.82,3.39-6.16l14.36-11.57c.33-.4.03-.57-.18-.87-.39-.56-4.62-4.67-4.95-4.59ZM63.53,161.4c.26-2.21,2.44-3.1,3.39-4.9l-10.34-10.09c-.69.7-3.8,4.35-3.46,5.11l10.41,9.88ZM111.05,184.13c2.13,2.13,6.14.82,6.39-2.1.2-2.26-1.45-3.35-1.72-4.79-.2-1.06-.1-3.58-.03-4.77.41-7.23,1.79-14.86,2.4-22.12-.35-3.86-8.22-3.98-8.68.08l2.55,24.45c.31,3.33-3.97,6.19-.92,9.25ZM94.91,162.76c-.69-3.34-.01-6.98-1.53-10.22l-4.94,4.26c1.87,1.58,3.56,3.97,5.45,5.46.34.27.44.66,1.03.51ZM51.26,156.28c-.26,3.01-1.33,6.58,1.23,8.83l19.24,18.96,6.48-.33.17-.87-27.11-26.59ZM84.85,159.36l-4.58,4.21,11.06,11.12c.87-1.26,2.89-4.79,2.51-6.23-.35-1.31-7.82-7.36-8.99-9.11ZM78.04,167.88c-.5.43-.69,1.11-1.19,1.55-.74.65-3.55,1.81-3.42,2.37.16.7,9.02,8.86,10.33,10.02.77-.65,4.8-2.95,4.64-3.83l-10.36-10.11ZM64.22,183.22l-12.27-12.62c.1,3.49,1.28,6.81,2.12,10.15l10.15,2.46ZM53.3,208.79l.53-6.81c-5.31-5.26-10.54-10.61-15.88-15.85-.48-.47-.72-1.1-1.19-1.54s-3.58-3.27-3.82-3.34c-.79-.23-6.59-.15-6.92.27l27.27,27.27ZM50.5,184.32l-10.15-2.46,12.1,12.61c.7-.47.33-.51.27-.94-.42-3.13-1.46-6.16-2.23-9.21Z"/><path class="cls-1" d="M105.14,91.83c-.02,9.63,16.91,9.51,17.05,0,9.89,2.46,18.18,11.05,20.8,20.8-9.65-.07-9.51,16.83,0,17.05-2.76,9.9-10.89,17.75-20.63,20.79-.28-9.67-16.9-9.6-17.22,0-9.83-2.62-18.4-10.88-20.8-20.8,9.89.04,9.51-17.46-.34-17.05,2.89-9.86,11.08-18.46,21.14-20.8ZM104.71,103.18c-6.19.87-9.01,8.59-5.21,13.56,3.33,4.35,10.02,4.35,13.31,0,4.76-6.28-.28-14.66-8.1-13.56ZM123.12,109.65c-1.72.31-4.18,2.3-5.09,3.78-4.92,7.98,4.84,16.9,12.31,11.29,7.44-5.59,2.17-16.77-7.22-15.06ZM113.53,122.33c-7.87-3.87-15.64,5.14-10.86,12.39,4.06,6.16,13.9,4.07,15.38-3.2.72-3.55-1.26-7.59-4.52-9.19Z"/><path class="cls-1" d="M86.93,123.76c-.03.07-.71,1.12-.77,1.17-.24.2-1.35.63-1.67.65-5.97-1.07-12.03-1.18-18.05-1.7-2.06-.18-4.87-1.04-6.82-1.02-2.29.02-4.36,2.16-6.47,2.07-4.37-.2-4.66-6.91-.32-7.51,2.06-.28,2.43.79,4.04,1.37,3.69,1.34,9.98-.33,14-.7,3.28-.3,6.6-.42,9.88-.69,2.05-.17,3.77-1.43,5.46.35,1.39,1.47,1.42,4.19.71,6.01Z"/><path class="cls-1" d="M141.06,124.45c-1.93-1.96-1.26-7.45,1.79-7.72,7.26.61,14.88,1.98,22.12,2.4,1.19.07,3.71.17,4.77-.03.84-.16,1.86-1.17,2.98-1.45,5.97-1.51,6.62,6.93,1.43,7.26-1.49.09-2.82-1.19-4.16-1.58-3.22-.96-6.26.29-9.44.57-5.79.51-11.64.63-17.4,1.54-.6-.04-1.68-.55-2.09-.97Z"/><path class="cls-1" d="M111.05,184.13c-3.05-3.05,1.23-5.91.92-9.25l-2.55-24.45c.45-4.07,8.33-3.94,8.68-.08-.61,7.26-1.98,14.88-2.4,22.12-.07,1.19-.17,3.71.03,4.77.27,1.44,1.91,2.53,1.72,4.79-.25,2.92-4.26,4.23-6.39,2.1Z"/><path class="cls-1" d="M113.24,57.11c1.87-.32,3.9,1.32,4.16,3.21.29,2.06-.79,2.44-1.37,4.04-1.34,3.69.33,9.98.7,14,.3,3.28.42,6.6.69,9.88.17,2.1,1.54,4-.56,5.58-2.32,1.75-7.33,1.32-7.5-2.22l2.62-24.51c.18-2.44-2.24-4.07-2.08-6.46.12-1.73,1.71-3.25,3.35-3.53Z"/><path class="cls-1" d="M176.06,86.04l-27.27-27.27c.33-.42,6.13-.51,6.92-.27.24.07,3.35,2.89,3.82,3.34s.71,1.07,1.19,1.54c5.33,5.24,10.59,10.57,15.87,15.86l-.52,6.8Z"/><path class="cls-1" d="M51.26,156.28l27.11,26.59-.17.87-6.48.33-19.24-18.96c-2.56-2.25-1.49-5.82-1.23-8.83Z"/><path class="cls-1" d="M174.02,33.53l27.11,26.59-.17.87-6.48.33-19.24-18.96c-2.56-2.25-1.49-5.82-1.23-8.83Z"/><path class="cls-1" d="M53.3,208.79l-27.27-27.27c.33-.42,6.13-.51,6.92-.27.24.07,3.35,2.89,3.82,3.34s.71,1.07,1.19,1.54c5.33,5.24,10.56,10.59,15.88,15.85l-.53,6.81Z"/><path class="cls-1" d="M155.87,74.86c4.03-.42,5.69,4.89,2.36,6.81-1.19.69-2.71.75-3.89,1.57-4.95,4.92-9.01,10.78-13.57,16.09-1.03-1.35-2.2-2.55-3.4-3.75-.65-.66-2.01-.92-1.39-2.04l14.35-11.57c2.72-2.16,1.51-6.68,5.54-7.1Z"/><path class="cls-1" d="M140.77,142.99l12.43,15.18c2.29,2.28,6.98,1.48,6.85,5.77-.12,3.85-5.82,4.81-7.25,1.11-.31-.79-.28-1.6-.64-2.43-.86-1.99-11.64-10.44-14.13-12.47-.64-.52-1.4-.86-2.05-1.37-.78-1.22,1.62-2.23,2.24-2.89.86-.91,1.47-2.13,2.54-2.91Z"/><path class="cls-1" d="M85.76,98.59l-11.47-14.27c-1.28-1.97-4.76-1.73-5.99-3.22-3.03-3.69,1.56-7.93,4.96-5.64,1.52,1.03,1.25,2.47,1.91,3.88,1.27,2.72,10.83,10.08,13.77,12.49.55.45,2.86,1.36,2.4,2.39-.3.66-1.96,1.65-2.57,2.21-.84.78-1.31,2.69-3.01,2.15Z"/><path class="cls-1" d="M86.22,143.32c.33-.08,4.57,4.03,4.95,4.59.21.3.51.47.18.87l-14.36,11.57c-1.96,1.34-1.89,4.93-3.39,6.16-3.56,2.93-8.13-1.57-5.3-5.3,1.08-1.42,4.36-1.22,5.65-2.88l12.28-15.01Z"/><path class="cls-1" d="M136,67.63l11.06,11.12-4.58,4.21c-1.17-1.75-8.64-7.79-8.99-9.11-.38-1.44,1.63-4.97,2.51-6.23Z"/><path class="cls-1" d="M166.84,99.32c-1.44.53-4.7,2.54-6.11,1.9-2.01-2.67-6.47-5.58-8.21-8.17-.23-.34-.41-.5-.29-.97.09-.33,3.49-4.37,3.84-4.31l10.46,10.36.31,1.19Z"/><path class="cls-1" d="M84.85,159.36c1.17,1.75,8.64,7.79,8.99,9.11.38,1.44-1.63,4.97-2.51,6.23l-11.06-11.12,4.58-4.21Z"/><path class="cls-1" d="M65.5,141c.5-.07.89-.13,1.29.26l8.3,8.44c.24.91-2.91,3.93-3.58,4.86l-11.02-10.77c-.21-1.15,4.06-2.67,5.01-2.8Z"/><path class="cls-1" d="M163.79,80.93l10.53,10.11-3.59,4.87-10.33-10.08c.95-1.8,3.13-2.69,3.39-4.9Z"/><path class="cls-1" d="M63.53,161.4l-10.41-9.88c-.34-.76,2.77-4.41,3.46-5.11l10.34,10.09c-.95,1.8-3.13,2.69-3.39,4.9Z"/><path class="cls-1" d="M78.04,167.88l10.36,10.11c.16.88-3.87,3.18-4.64,3.83-1.31-1.16-10.18-9.32-10.33-10.02-.13-.56,2.68-1.72,3.42-2.37.5-.44.69-1.12,1.19-1.55Z"/><path class="cls-1" d="M153.9,71.03c-1.79.5-3.53,1.6-4.42,3.26l-.5.15-10.07-10.35c.61-.7,4.51-3.73,5.11-3.46l9.88,10.41Z"/><path class="cls-1" d="M64.22,183.22l-10.15-2.46c-.84-3.34-2.02-6.66-2.12-10.15l12.27,12.62Z"/><path class="cls-1" d="M50.5,184.32c.77,3.05,1.81,6.07,2.23,9.21.06.43.42.47-.27.94l-12.1-12.61,10.15,2.46Z"/><path class="cls-1" d="M186.97,60.46l-10.15-2.46c-.84-3.34-2.02-6.66-2.12-10.15l12.27,12.62Z"/><path class="cls-1" d="M173.25,61.57c.77,3.05,1.81,6.07,2.23,9.21.06.43.42.47-.27.94l-12.1-12.61,10.15,2.46Z"/><path class="cls-1" d="M149.29,102.07c-.49-.05-4.26-.85-4.26-1.19l4.26-4.94,5.96,5.97c.09,1.04-.37.17-.51.17-1.73,0-3.78.16-5.46,0Z"/><path class="cls-1" d="M82.29,141.28c-.78.86-3.35,5.1-4.27,5.03l-5.96-6.05c3.46-.18,6.89.12,10.23,1.02Z"/><path class="cls-1" d="M94.91,162.76c-.59.15-.68-.23-1.03-.51-1.88-1.49-3.58-3.88-5.45-5.46l4.94-4.26c1.52,3.25.84,6.88,1.53,10.22Z"/><path class="cls-1" d="M133.78,89.79c-.96-3.39-1.2-6.71-1.02-10.23l6.13,5.97-5.1,4.26Z"/><path d="M123.12,109.65c9.39-1.71,14.66,9.48,7.22,15.06-7.47,5.61-17.23-3.31-12.31-11.29.91-1.48,3.37-3.46,5.09-3.78ZM124.83,113.73c-2.84.39-4.84,3.58-3.28,6.19s4.56,3.01,6.74,1.05c2.81-2.54.26-7.75-3.46-7.24Z"/><path d="M104.71,103.18c7.82-1.11,12.87,7.27,8.1,13.56-3.3,4.35-9.99,4.35-13.31,0-3.8-4.97-.98-12.68,5.21-13.56ZM106.08,107.26c-5.93.33-5.13,9.64,1.26,8.43,4.81-.91,3.58-8.69-1.26-8.43Z"/><path d="M113.53,122.33c3.25,1.6,5.24,5.63,4.52,9.19-1.48,7.27-11.32,9.36-15.38,3.2-4.78-7.25,3-16.26,10.86-12.39ZM106.59,133c2.66,2.73,8.06.37,7.39-3.81-.79-4.92-8.94-4.5-8.53,1,.04.56.8,2.46,1.14,2.81Z"/><path class="cls-1" d="M124.83,113.73c3.72-.51,6.27,4.7,3.46,7.24-2.18,1.97-5.25,1.44-6.74-1.05-1.57-2.61.44-5.8,3.28-6.19Z"/><path class="cls-1" d="M106.08,107.26c4.84-.27,6.07,7.52,1.26,8.43-6.39,1.21-7.19-8.1-1.26-8.43Z"/><path class="cls-1" d="M106.59,133c-.34-.35-1.09-2.25-1.14-2.81-.41-5.5,7.74-5.92,8.53-1,.67,4.18-4.74,6.54-7.39,3.81Z"/></g></svg>