<?xml version="1.0" encoding="UTF-8"?><svg id="Layer_1" xmlns="http://www.w3.org/2000/svg" viewBox="0 0 231 231"><defs><style>.cls-1{fill:#fff;}.cls-1,.cls-2{stroke:#231f20;stroke-miterlimit:10;stroke-width:.5px;}</style></defs><g id="WIpHWp"><path class="cls-2" d="M96.82,112.01h37.26c.86-4.66,4.94-8.63,9.64-9.3,5.84-.82,11.21,2.59,13.01,8.17.12.39.12,1.36.48,1.48l28.91.02c.11,0,.18-.04.25-.12.09-.11.39-1.47.53-1.8,2.54-6.55,10.87-8.59,16.26-4.08,4.77,3.99,4.87,11.33.3,15.48-5.33,4.84-13.91,2.9-16.56-3.76-.13-.33-.47-1.84-.67-1.91l-29.1.04c-.3.67-.4,1.42-.67,2.14-1.1,2.94-3.62,5.53-6.53,6.7-7.05,2.83-14.92-1.72-15.94-9.21l-1.17-.2-35.4.04c-.87.16-.47.51-.61,1.11-2.79,11.66-18.95,12.24-22.64.63-.18-.57.03-1.2-.71-1.38l-28.66-.03c-.43.08-.64,1.51-.83,1.99-2.51,6.41-10.88,8.58-16.15,4.08-5.33-4.56-4.67-13.05,1.36-16.66,5.32-3.19,12.5-.83,14.76,4.96.16.42.49,1.97.76,2.06l28.97-.04c.51-.3.37-.95.53-1.43,1.85-5.61,6.8-9.01,12.77-8.31,4.8.56,8.99,4.59,9.87,9.31ZM79.33,109c-6.97,8.32,5.59,18.58,12.33,10.18,6.46-8.06-5.8-17.98-12.33-10.18ZM151.2,108.63c-4.23-4.28-11.73-2.4-13.36,3.41-1.94,6.92,5.57,12.78,11.77,9.07,4.39-2.62,5.18-8.85,1.59-12.48ZM29.68,118.96c6.36,6.26,15.81-3.51,9.22-9.65-6.27-5.84-15.31,3.64-9.22,9.65ZM195.96,107.63c-6.89.84-8.26,10.01-2.17,12.65,5.87,2.55,11.58-3.83,8.39-9.37-1.16-2.01-3.87-3.57-6.21-3.29Z"/><path class="cls-2" d="M122.62,160.56c.18.04.9.5,1.04.67,1.02,1.2.3,2.64-1.05,3.12l-28.99.07c-2.16,2.39-4.1,5.04-5.3,8.07-.83,2.09-1.36,4.52-1.57,6.77-.11,1.14.36,2.16-.68,3-.97.79-2.77.3-2.99-.92-.25-1.34.12-4.2.39-5.6,2.65-13.84,16.59-21.84,27.92-28.04.05-.26-.18-.32-.35-.44-1.41-.97-3.36-1.82-4.88-2.72-4.58-2.71-9.51-5.89-13.4-9.52-.88-.82-3.91-3.88-4.22-4.85-.54-1.65,1.3-3.02,2.75-2.13.71.44,2.36,2.67,3.12,3.44.24.25,1.84,1.76,1.97,1.77h37.89c.5-.07,1.44-1.02,1.85-1.41,1.01-.96,1.87-2.15,2.8-3.14s1.97-1.48,3.05-.35.1,2.38-.67,3.36c-4.24,5.35-11.92,10.15-17.81,13.57-1.13.66-2.61,1.27-3.65,1.99-.17.12-.4.18-.35.44,1.14.58,2.28,1.18,3.39,1.82,10.33,5.97,22.13,13.57,24.52,26.23.27,1.44.65,4.22.39,5.6-.3,1.63-3,1.78-3.6.18-.12-1.71-.14-3.47-.49-5.15-.06-.28-.33-1.39-.51-1.45l-43.75-.02c-1.48-.06-2.32-1.79-1.39-2.98.18-.23.87-.69,1.15-.69h42.54l.13-.25c-5.42-10.42-16.64-15.71-26.39-21.31-3.56,1.95-7.18,3.86-10.62,6.01-2.35,1.47-4.75,3.07-6.82,4.88h24.58ZM101.55,136.92l-.14.23c4.5,3,9.19,5.71,13.99,8.21.33.02,2.38-1.16,2.86-1.42,3.87-2.09,7.63-4.41,11.29-6.85l-27.99-.17Z"/><path class="cls-2" d="M99.08,57.22c-.08-.02-.51-.29-.61-.37-1.38-1.09-.57-3.07,1.1-3.19l43.62-.02c.2-.07.48-.92.54-1.18.38-1.68.2-3.3.41-4.86.31-2.29,3.35-2.13,3.66-.13.29,1.83-.57,6.07-1.13,7.93-3.76,12.49-16.75,19.49-27.3,25.53-.05.24.05.15.16.21,1.81,1.06,3.71,1.99,5.52,3.06,4.89,2.9,10.12,6.29,14.13,10.33.62.62,2.95,3.09,3.17,3.76.63,1.94-1.72,3.36-3.18,1.84-1.23-1.28-2.23-2.72-3.61-3.99-.66-.6-1.54-1.55-2.41-1.64l-35.3-.02-.98.25c-1.14,1.07-2.29,2.12-3.37,3.25-.61.63-1.98,2.56-2.66,2.73-1.43.37-2.7-.9-2.33-2.33.1-.38,1.62-2.14,1.99-2.54,4-4.43,9.63-8.19,14.74-11.25,2-1.2,4.16-2.2,6.13-3.43.09-.06.21.04.16-.21-4.49-2.63-9.06-5.11-13.28-8.18-8.04-5.84-14.43-13-15.04-23.45-.06-1.06-.16-2.94,1.19-3.22,2.79-.57,2.17,2.88,2.36,4.57.4,3.45,1.99,7.18,3.95,10.03.41.6,2.64,3.47,3.13,3.61l29.18.12c1.65,1.05,1.21,3.09-.65,3.45l-23.28-.09c-.39.16-1.7-.2-.91.52.62.56,1.69,1.26,2.4,1.76,4.64,3.31,9.72,5.99,14.72,8.7.25.06.45-.05.67-.13.85-.33,2.35-1.3,3.24-1.78,7.4-4.06,16.37-9.39,21.13-16.51.6-.9,1.38-2.1,1.59-3.13h-42.84ZM128.56,90.93c.04-.22-.11-.3-.25-.42-.72-.58-2.1-1.31-2.94-1.84-3.21-1.99-6.55-3.78-9.87-5.59l-.39.09c-2.11,1.27-4.32,2.37-6.44,3.61-1.85,1.08-4.44,2.46-6.09,3.72-.12.09-.28.19-.25.36l26.23.06Z"/><path class="cls-2" d="M217.03,91.35c1.05.93,2.08,2.01,2.98,3.08.56.67,2.11,2.55,2.18,3.34.14,1.53-3.04,3.65-3.04,5.73,0,1.91,1.29,2.9,3.02,3.23.95.18,2.21.17,3.14.41.88.23,1.39,1.03,1.54,1.9.56,3.28.56,7.21,0,10.48-.22,1.3-1.07,1.8-2.29,2-1.99.33-4.34-.04-5.16,2.32-.9,2.6,1.36,3.75,2.44,5.67.75,1.33.22,1.86-.54,2.97-1.61,2.32-4.2,4.86-6.49,6.5-.96.69-1.59,1.34-2.82.74-1.56-.76-2.83-2.78-4.79-2.81-.7,0-1.74.42-2.24.92-1.8,1.77-.18,6.25-3.05,6.76-3.27.58-7.58.6-10.83-.02-.64-.12-1.52-.72-1.68-1.38-.33-1.37-.21-3.47-.83-4.68-.46-.89-1.71-1.56-2.69-1.58-1.77-.03-2.99,1.6-4.36,2.48-.83.53-1.4.76-2.34.27-.8-.42-2.45-1.82-3.17-2.47-1.12-1.01-4.68-4.7-5.04-5.99-.5-1.75,1.68-3.26,2.45-4.7.67-1.26.5-2.82-.53-3.84-.79-.79-1.33-.59-2.17-1.02-1.9-.97-1.11-3.52.81-3.52,1.37,0,3.18,1.05,4.11,2.03,2.15,2.29,2.58,5.6.96,8.32-.28.47-1.5,1.81-1.46,2.22.06.6,3.69,4.08,4.36,4.6.19.15.46.4.7.35,2.45-2.09,5.15-3.26,8.33-1.91,2.31.98,3.63,2.93,4.11,5.33.26,1.29-.31,1.98,1.31,2.12,1.9.16,4.15-.04,6.05-.14.4-2.06.49-3.83,1.94-5.48,2.45-2.8,6.3-3.07,9.35-1.05.33.22,1.29,1.22,1.63,1.14.86-.66,1.73-1.36,2.5-2.12.57-.56,1.86-1.88,2.25-2.49.08-.13.23-.37.19-.52-.1-.35-1.33-1.75-1.63-2.29-2.03-3.73-.02-8.82,4.12-9.93.94-.25,1.96-.11,2.86-.57.11-.14.22-.99.24-1.23.07-1.07.13-4.74-.19-5.58-.04-.11-.08-.23-.18-.31-1.06-.2-2.1-.19-3.12-.56-3.99-1.43-5.74-6.31-3.6-9.96.34-.58,1.53-1.78,1.45-2.35-.06-.44-2.63-3.05-3.13-3.5-.35-.32-1.47-1.36-1.84-1.36-.34,0-1.85,1.3-2.35,1.58-2.29,1.27-4.73,1.1-6.94-.25-2.5-1.53-3.21-3.9-3.41-6.7-2.42-.38-4.91-.36-7.33-.01-.03,2.86-1.16,5.7-3.85,7-2.4,1.17-4.57,1.09-6.86-.29-.38-.23-1.6-1.29-1.87-1.33-.39-.06-.95.53-1.28.8-.72.59-1.51,1.34-2.15,2.02-.23.25-1.64,1.87-1.66,2.03-.07.5,1.42,2.13,1.74,2.79,1.46,2.97.51,6.62-2.14,8.57-.8.59-2.68,1.47-3.62,1.24-1.32-.33-1.97-1.78-1.13-2.92.57-.77,1.05-.6,1.8-.9,1.45-.59,2.35-2.2,1.97-3.73-.43-1.73-3.07-3.53-2.9-5.17.08-.79,1.9-2.94,2.5-3.63,1.17-1.35,4.25-4.4,5.78-5.13,1.9-.9,3.39,1.32,4.88,2.19,1.57.92,3.63.54,4.54-1.11.63-1.16.53-3.24.82-4.57.24-1.07,1.49-1.37,2.4-1.52,1.92-.33,4.52-.37,6.47-.28,1.03.05,3.4.22,4.3.61,1.99.87.55,5.07,2.64,6.68,1.22.94,2.52.92,3.81.15,1.48-.89,2.9-3.02,4.81-2.14.74.34,2.54,1.88,3.22,2.48Z"/><path class="cls-2" d="M57.39,94.07c.72.82,1.57,1.64,2.14,2.58,1.59,2.63-2.5,4.26-2.56,6.72-.03,1.02.62,2.37,1.49,2.93.98.63,1.98.2,2.59,1.58.56,1.28-.57,2.51-1.92,2.41-4.47-.33-6.96-5.92-5.01-9.79.3-.6,1.8-2.35,1.74-2.75-.03-.2-1.83-2.25-2.12-2.55-.47-.48-1.2-1.14-1.72-1.58-.3-.26-.98-.9-1.34-.86-.26.03-1.6,1.21-1.99,1.45-3.01,1.86-7.23,1.06-9.19-1.92-1.02-1.55-1.11-3.08-1.39-4.87-.97-.37-7.03-.48-7.43.06-.27,1.05-.28,2.16-.61,3.19-1.07,3.36-4.95,5.25-8.3,4.26-1.41-.42-2.52-1.51-3.73-2.27-.56-.05-4.82,4.31-5.19,5.19.41.89,1.17,1.54,1.64,2.41,2.28,4.22-.14,9.08-4.8,10-.48.1-1.64.1-1.94.27-.32.19-.39,1.13-.42,1.54-.13,1.82-.03,3.94.23,5.74.21.33,2.24.4,2.71.51,4.33,1,6.42,6.31,4.21,10.1-.27.47-1.49,1.77-1.52,2.17-.02.24.88,1.31,1.11,1.58,1.12,1.3,2.55,2.51,3.88,3.6.9-.45,1.61-1.24,2.54-1.72,2.7-1.39,5.96-.9,8.12,1.24,1.62,1.61,1.88,3.58,2.16,5.74.04.06.32.12.42.13,1.58.21,4.66.2,6.24.01,1.02-.12.68-1.09.83-1.87.98-5.21,6.36-7.86,10.87-4.8,1.35.91,1.15,1.75,2.76.42.91-.75,3.08-2.86,3.68-3.8.19-.3.27-.5.12-.85-.23-.56-1.3-1.59-1.67-2.37-1.33-2.79-.57-6,1.67-8.06,1.11-1.02,3.86-2.51,5.09-1.04.77.91.59,2.01-.38,2.69-.51.36-1.03.31-1.55.54-1.18.52-2.08,2.21-1.82,3.46.32,1.55,2.24,2.94,2.79,4.32.32.82.19,1.26-.24,2.01-1.29,2.27-5.3,6.16-7.52,7.56-.65.41-1.27.64-2.07.37-.65-.22-2.31-1.85-3.08-2.31-1.66-1-3.66-.61-4.62,1.12-.66,1.2-.5,3.13-.79,4.48-.12.54-.9,1.25-1.42,1.4-2.54.72-8.66.65-11.23.02-2.3-.56-1.51-4.01-2.25-5.84-.6-1.46-2.65-2.02-4.07-1.57-1.12.35-2.76,2.35-3.81,2.69-1.33.43-2.5-.75-3.48-1.53-1.79-1.42-4.96-4.49-6.05-6.45-.55-1-.49-1.42.05-2.36,1.12-1.95,3.26-3.04,2.32-5.65-1-2.77-4.07-1.86-6.22-2.61-.8-.28-1.01-1.03-1.16-1.78-.59-2.99-.58-7.24,0-10.24.09-.49.31-1.19.7-1.51.87-.69,3.57-.62,4.79-.97s2.22-1.95,2.21-3.19c0-2.48-3.94-4.32-2.69-6.6.89-1.61,3.36-4.16,4.76-5.42.6-.53,2.71-2.32,3.32-2.57,1.56-.63,3.05,1.21,4.25,2,.25.16.91.64,1.14.7,1.48.44,3.4-.32,4.04-1.74.7-1.56.11-5.12,1.95-5.65,2.63-.76,8.53-.72,11.22-.13.82.18,1.3.6,1.53,1.41.52,1.87,0,4.59,2.01,5.72,3.07,1.72,4.28-1.27,6.5-2.3,1.11-.52,1.71-.03,2.6.56,1.83,1.22,3.48,2.95,4.91,4.59Z"/><path class="cls-2" d="M84.15,144.17c.25.25.54.87.54,1.24-.37,5.09.47,10.82,0,15.83-.05.58-.31.85-.7,1.26-4.38,2.29-8.6,5.24-12.98,7.5-.8.41-1.3.69-2.27.44l-12.26-7.11-.42-.08-5.43,2.99c-.25,1.15-.11,2.18-.51,3.35-1.51,4.34-7.03,5.81-10.55,2.81-5.4-4.6-.7-13.3,6.14-11.41,1.33.37,2.19,1.17,3.24,1.98l5.22-3.07c.13-.14.1-.32.12-.49.43-4.41-.44-9.58-.01-13.99.12-1.28,1.51-1.81,2.5-2.41,3.86-2.33,7.89-4.41,11.74-6.77.56-.29,1.28-.28,1.85-.04l13.78,7.98ZM80.84,146.49l-11.32-6.53-11.32,6.45-.2.29.06,13.29,11.37,6.55,11.31-6.41.26-.85c-.24-3.91.3-8.16,0-12.02-.01-.19-.06-.64-.16-.76ZM43.58,164.39c-2.75.39-3.62,3.85-1.31,5.42,2.47,1.68,5.7-1.27,4.09-3.97-.51-.85-1.78-1.6-2.77-1.46Z"/><path class="cls-2" d="M186.03,52.72c2.41-.26,4.53.41,6.09,2.29,4.22,5.06-.85,12.52-7.2,10.51-1.18-.37-2.02-1.16-2.95-1.9l-5.29,3.04-.06,14.65c-.06.52-.48,1-.87,1.34-4.47,2.24-8.71,5.34-13.15,7.56-1.52.76-1.7.35-3.08-.39-4.19-2.24-8.15-4.93-12.36-7.13l-.84-1-.1-16.21c0-.62.43-1.09.87-1.46,4.21-2.24,8.2-4.97,12.41-7.2.82-.43,1.72-1.12,2.64-.64l12.04,6.96.73.26,5.39-3.07c.26-.29.07-1.46.13-1.95.35-2.75,2.83-5.37,5.6-5.67ZM186.76,56.26c-2.78.39-3.65,3.79-1.31,5.42s5.54-1.05,4.18-3.81c-.47-.96-1.82-1.75-2.87-1.61ZM161.26,60.06l-11.3,6.6-.07,13.06c.05.47.79.77,1.19,1.01,3.41,2.04,6.93,3.91,10.38,5.88l11.42-6.59.07-13.07c.02-.16-.04-.24-.13-.36-.21-.25-2.36-1.42-2.84-1.7-2.73-1.61-5.54-3.08-8.23-4.77l-.49-.08Z"/><path class="cls-2" d="M208.81,101.4c7.83,7.55,7.18,20.2-1.36,26.91-6.74,5.3-16.51,4.93-22.86-.79-1.1-1-4.03-4.3-4.03-5.75,0-1.32,1.24-2.04,2.48-1.77.83.19,1.72,2.12,2.3,2.85,7.16,9.22,21.94,6.2,24.8-5.1,3.43-13.53-12.85-23.31-23.22-13.9-1.46,1.32-1.9,2.71-3,3.99-1.25,1.47-3.43.57-3.32-1.23.13-2,3.96-5.76,5.59-6.91,6.93-4.91,16.52-4.18,22.62,1.7Z"/><path class="cls-2" d="M45.03,100.05c1.54,1.13,4.52,4.2,5.09,6.01s-1.29,3.22-2.75,2.14c-.46-.34-1.62-2.43-2.17-3.11-6.76-8.34-20.5-5.82-24.08,4.23-5.52,15.47,15.08,26.8,25.24,12.49.24-.33.38-.79.62-1.1,1.36-1.71,3.97-.31,3.07,1.97-.99,2.5-4.5,5.71-6.82,7.03-11.05,6.3-25.1-.88-26.46-13.47-1.66-15.33,15.74-25.37,28.26-16.19Z"/><path class="cls-2" d="M173.02,160.64c-3.12,1.77-6.16,3.75-9.31,5.46-.44.24-1.85,1.06-2.24,1.08-.33.02-1.38-.53-1.73-.71-3.19-1.66-6.26-3.83-9.47-5.49-.62-.31-.99-.91-1.12-1.58.35-3.85-.46-8.51,0-12.26.15-1.23,1.36-1.67,2.3-2.24,2.47-1.51,5.15-3.05,7.67-4.46,1.45-.81,1.9-1.35,3.56-.57,3.33,1.58,6.66,4.15,10,5.81.63.33.93,1,1,1.7.34,3.82-.27,8.14,0,12.02l-.66,1.24ZM169.86,148.32l-8.39-4.8-8.38,4.73-.19.48.12,9.51,8.35,4.78,8.45-4.91.04-9.79Z"/><path class="cls-2" d="M81.21,80.47c-2.84,1.72-5.69,3.46-8.58,5.08-1.51.84-2.62,1.94-4.33,1.1-3.37-1.65-6.62-4.13-10.01-5.8-.71-.44-.9-1.2-.94-2-.04-.6.13-1.08.13-1.59.03-3.16-.3-7.01,0-10.06.06-.65.22-.95.75-1.33,1.27-.92,3.3-1.86,4.68-2.67,1.59-.93,4.23-2.77,5.82-3.38.54-.21,1.08-.25,1.61.04,3.15,2.03,6.9,3.63,9.98,5.71.71.48,1.21.82,1.31,1.75.42,3.77-.32,8.29,0,12.14l-.41,1ZM78.03,78.28v-9.82s-8.19-4.92-8.19-4.92l-.54-.07-8.35,4.78-.06,9.97,8.13,4.77.52.1,8.5-4.81Z"/><path class="cls-2" d="M99.11,122.59l28.04-.03c2.28.25,2.67,3,.49,3.68l-29.08-.1c-1.73-.97-1.25-3.03.55-3.55Z"/><path class="cls-2" d="M99.36,101.38l27.8-.03c1.89.06,2.66,2.67.96,3.54-.61.31-1.76.13-2.43.13-8.91.07-17.82-.05-26.74.01-2.15-.71-1.83-3.33.41-3.65Z"/><path class="cls-1" d="M79.33,109c6.53-7.8,18.79,2.13,12.33,10.18-6.73,8.4-19.29-1.86-12.33-10.18Z"/><path class="cls-1" d="M151.2,108.63c3.6,3.64,2.8,9.86-1.59,12.48-6.2,3.7-13.7-2.16-11.77-9.07,1.63-5.82,9.13-7.69,13.36-3.41Z"/><path class="cls-1" d="M29.68,118.96c-6.09-6,2.94-15.49,9.22-9.65,6.59,6.13-2.86,15.91-9.22,9.65Z"/><path class="cls-1" d="M195.96,107.63c2.34-.29,5.05,1.28,6.21,3.29,3.19,5.54-2.51,11.92-8.39,9.37-6.09-2.64-4.72-11.81,2.17-12.65Z"/><path class="cls-1" d="M101.55,136.92l27.99.17c-3.66,2.44-7.42,4.76-11.29,6.85-.48.26-2.52,1.45-2.86,1.42-4.8-2.5-9.49-5.22-13.99-8.21l.14-.23Z"/><path class="cls-1" d="M128.56,90.93l-26.23-.06c-.02-.17.14-.27.25-.36,1.65-1.26,4.24-2.64,6.09-3.72,2.13-1.24,4.33-2.34,6.44-3.61l.39-.09c3.32,1.81,6.66,3.6,9.87,5.59.84.52,2.23,1.25,2.94,1.84.14.12.3.2.25.42Z"/><path class="cls-1" d="M80.84,146.49c.1.12.14.57.16.76.3,3.86-.24,8.12,0,12.02l-.26.85-11.31,6.41-11.37-6.55-.06-13.29.2-.29,11.32-6.45,11.32,6.53Z"/><path class="cls-1" d="M43.58,164.39c1-.14,2.26.6,2.77,1.46,1.61,2.69-1.62,5.65-4.09,3.97-2.31-1.57-1.43-5.03,1.31-5.42Z"/><path class="cls-1" d="M161.26,60.06l.49.08c2.69,1.69,5.5,3.16,8.23,4.77.48.28,2.63,1.45,2.84,1.7.1.12.15.2.13.36l-.07,13.07-11.42,6.59c-3.44-1.97-6.97-3.85-10.38-5.88-.41-.24-1.15-.54-1.19-1.01l.07-13.06,11.3-6.6Z"/><path class="cls-1" d="M186.76,56.26c1.06-.15,2.4.65,2.87,1.61,1.36,2.77-1.81,5.47-4.18,3.81s-1.47-5.03,1.31-5.42Z"/><polygon class="cls-1" points="169.86 148.32 169.81 158.11 161.36 163.02 153.02 158.23 152.9 148.73 153.09 148.25 161.47 143.52 169.86 148.32"/><polygon class="cls-1" points="78.03 78.28 69.54 83.09 69.02 82.99 60.89 78.22 60.95 68.25 69.3 63.47 69.84 63.54 78.03 68.46 78.03 78.28"/></g></svg>