<?xml version="1.0" encoding="UTF-8"?>
<svg id="Layer_1" xmlns="http://www.w3.org/2000/svg" version="1.1" viewBox="0 0 364 58.6">
  <!-- Generator: Adobe Illustrator 29.1.0, SVG Export Plug-In . SVG Version: 2.1.0 Build 142)  -->
  <defs>
    <style>
      .st0 {
        fill: #004684;
      }

      .st1 {
        fill: #fff;
      }

      .st2 {
        fill: #a32035;
      }

      .st3 {
        fill: #002d74;
      }
    </style>
  </defs>
  <g id="Layer_2">
    <g id="Layer_1-2">
      <path d="M300.1,23.4h-1c-.9-3.9-3.6-6.1-7.2-6.1s-7.1,3.4-7.1,8.6,3.7,10.5,8,10.5c3.2,0,6.1-1.6,7.9-4.2v1.9c-2.2,3-5.7,4.6-9.4,4.5-6.3,0-10.7-4.4-10.7-10.8s4.9-11.8,11-11.8,4.9,1.2,6,1.2,1.1-.4,1.5-1.2h1v7.5ZM73.1,31c0,4.3,1,5.5,3.9,5.5v1.2h-12.4v-1.2c2.4,0,3.9-.8,3.9-5.4V10c0-4.2-1-5.5-3.9-5.5v-1.2h12.6c9.5,0,13.3,5,13.3,9.8s-4.3,8.9-12.1,8.9c-1.8,0-3.5-.1-5.3-.4v9.4ZM73.1,19.8c1.4.5,2.8.7,4.3.6,5.1,0,8.3-2.5,8.3-7.2s-2-8.4-8.3-8.4h-4.3v15ZM94.4,25c-.1,9.6,5.6,11.5,8.5,11.5s5.1-1.5,7.5-4.2v2c-2,2.8-5.3,4.4-8.8,4.2-6.7,0-11.5-4.6-11.5-11.1s4.7-11.5,10.7-11.5,9.5,4.2,9.2,9.1h-15.6ZM106,23.7c.2-4.7-3-6.4-5.7-6.4s-5.7,2.4-5.9,6.4h11.6ZM221.4,25c-.1,9.6,5.6,11.5,8.5,11.5s5.2-1.5,7.5-4.2v2c-2,2.8-5.3,4.4-8.8,4.2-6.7,0-11.5-4.6-11.5-11.1s4.7-11.5,10.7-11.5,9.5,4.2,9.2,9.1h-15.6ZM233,23.7c.2-4.7-3-6.4-5.7-6.4s-5.6,2.4-5.9,6.4h11.6ZM348,25c-.1,9.6,5.6,11.5,8.5,11.5s5.1-1.5,7.5-4.2v2c-2,2.8-5.3,4.4-8.8,4.2-6.7,0-11.5-4.6-11.5-11.1s4.7-11.5,10.7-11.5,9.5,4.2,9.2,9.1h-15.6ZM359.6,23.8c.2-4.7-3-6.4-5.7-6.4s-5.6,2.4-5.9,6.4h11.6ZM135.4,32.9c0,2.8.6,3.6,3.6,3.6v1.2h-11.4v-1.2c2.9,0,3.7-.7,3.7-2.6v-10.7c.2-2.5-1.7-4.7-4.2-4.9-.2,0-.3,0-.5,0-2.1,0-4,1.3-6.1,4.1v9.9c0,3.2.4,4.1,3.6,4.1v1.2h-11.2v-1.2c2.8,0,3.6-.2,3.6-4.1v-11.5c0-2.6-.7-3.1-3.6-3.1v-1.2l6.6-.7h1v4.3c2.5-2.9,5-4.3,7.7-4.3s7.2,2.5,7.2,7.6v9.4ZM162.7,32.9c0,2.8.6,3.6,3.6,3.6v1.2h-11.4v-1.2c2.9,0,3.7-.7,3.7-2.6v-10.7c.2-2.5-1.7-4.7-4.2-4.9-.2,0-.3,0-.5,0-2.1,0-4,1.3-6.1,4.1v9.9c0,3.2.4,4.1,3.6,4.1v1.2h-11.2v-1.2c2.8,0,3.5-.2,3.5-4.1v-11.5c0-2.6-.7-3.1-3.5-3.1v-1.2l6.6-.7h1v4.3c2.5-2.9,5-4.3,7.7-4.3s7.2,2.5,7.2,7.6v9.4ZM338.5,32.9c0,2.8.6,3.6,3.6,3.6v1.2h-11.4v-1.2c2.9,0,3.7-.7,3.7-2.6v-10.7c.2-2.5-1.7-4.7-4.2-4.9-.2,0-.3,0-.5,0-2.1,0-4,1.3-6.1,4.1v9.9c0,3.2.4,4.1,3.6,4.1v1.2h-11.2v-1.2c2.8,0,3.5-.2,3.5-4.1v-11.5c0-2.6-.7-3.1-3.5-3.1v-1.2l6.6-.7h1v4.3c2.5-2.9,5-4.3,7.7-4.3s7.2,2.5,7.2,7.6v9.4ZM213.3,4.6c-2.9,0-4.1,1.9-3.8,5.1l1.7,21.2c.4,4.2,1.1,5.3,4.3,5.6v1.2h-12.4v-1.2c2.9-.5,3.8-2.1,3.6-4.9l-1.7-22.2h-.1l-11.8,28.4h-.9l-11.5-28.4h-.1l-1.9,21.2c-.3,3.5,1,5.3,4.4,6v1.2h-11v-1.3c3.5-.5,4-2.3,4.4-6.1l2.1-23.7c-1.2-1.3-2.8-2.1-4.5-2.2v-1.3h9l10.8,26.8,11-26.8h8.4v1.3ZM261.8,33.4c0,2.3.8,3.1,3.5,3.1v1.2h-12.3c-9,0-12.4-6.1-12.4-11.1s4.4-10.8,10-10.8,4.4.8,7.1,2.6V5.6c0-3.1-.7-3.7-2.8-3.7h-1.2V.7L260.8,0h1v33.4ZM257.7,21c-1.4-2.1-3.7-3.4-6.2-3.6-3.9,0-6.5,3.2-6.5,8.4s2.3,10.8,9.3,10.8,3.4-1,3.4-3.2v-12.3ZM275,33.5c0,2.1.5,2.9,3.5,2.9v1.2h-11.6v-1.2c3.2,0,4-.4,4-2.9v-12.6c0-3-.9-3.2-4-3.2v-1.3l7.1-.7h1v17.7ZM275.6,7.4c0,1.4-1.1,2.6-2.6,2.6,0,0,0,0,0,0-1.5,0-2.6-1.2-2.6-2.7,0-1.4,1.2-2.6,2.6-2.6h0c1.4,0,2.6,1.1,2.6,2.5,0,0,0,0,0,0h0ZM311.1,33.5c0,2.1.5,2.9,3.5,2.9v1.2h-11.6v-1.2c3.2,0,4-.4,4-2.9v-12.6c0-3-.9-3.2-4-3.2v-1.3l7.1-.7h1v17.7ZM311.7,7.4c0,1.4-1.1,2.6-2.6,2.6-1.5,0-2.6-1.2-2.6-2.7,0-1.4,1.2-2.6,2.6-2.6h0c1.4,0,2.6,1.1,2.6,2.5,0,0,0,0,0,0h0Z"/>
      <path class="st1" d="M24,58.6l-.9-.4c-7.1-3.1-13.1-8.2-17.5-14.5C2.1,38.7.2,32.8,0,26.7V3.3h48v23.4c-.1,6.1-2.1,12-5.6,17-4.4,6.4-10.4,11.4-17.5,14.5l-.9.4Z"/>
      <path class="st0" d="M24,57.3l-.4-.2c-6.9-3-12.7-7.9-17-14.1-3.3-4.8-5.2-10.4-5.4-16.3V4.6h45.4v22.2c-.2,5.8-2,11.5-5.3,16.3-4.3,6.2-10.1,11-17,14.1l-.4.2Z"/>
      <path id="Bar" class="st2" d="M45.8,5.4H2.2v14.1h43.6V5.4Z"/>
      <path class="st3" d="M12.7,15.7v1.2H3.1v-1.2c-.3-.3-.4-.6-.4-1,0-.4.2-.7.4-1v-2.7c-.2-.3-.3-.6-.3-1,0-.6.4-1.1.9-1.4h.7c.6-.5,1.3-.8,2.1-.8.5,0,1,.1,1.5.3.5-.2,1.1-.3,1.6-.3.8,0,1.5.3,2.1.8h.6c.8.4,1.1,1.4.7,2.2,0,0,0,0,0,.1v2.7c.6.5.6,1.3.1,1.9,0,0,0,0-.1.1ZM33.3,11.8c-.1-.2-.2-.4-.2-.7.2-.8.5-1.5,1-2.1h0c0-.2-.6-.5-1.2-.5s-2,.5-1.9,2.8c-1,0-1.9.9-1.9,2,0,.5.1,1,.3,1.5,0,0,0,0,0,0,.2,0,.8-.8,1.2-1.1.2-.2.5-.2.8-.3.3,0,.6.3.7.6-.2.9-1,1.6-1.9,1.6-.7,0-1.3-.4-1.7-1,.2-.3.3-.6.3-1,0-.5-.2-.9-.6-1.1,0-.2,0-.4,0-.5,0-.4-.2-.8-.7-.9,0,0,0,0,0,0,0,0,0-1.5-1.2-1.5,0-.4-.5-.7-.9-.7-.1,0-.2,0-.3,0,0-.5-.5-.9-1-.9-.2,0-.3,0-.5.1-.2-.4-.6-.7-1.1-.7-.3,0-.7.1-.9.3,0,0-.6-1.1-1.8-.1-.3-.2-.6-.4-1-.4-.6,0-1.2.4-1.6.8,0,0,0-.3-.2-.3s0,0-.1.1c-.2.4,0,.5-.2.9,0,.1-2.4,2.9-2.4,5,0,.4.1.9.4,1.2,0,.1.1.1.1.2s0,0-.1.1-.6.4-.6.8c0,0,0,0,0,.1.3.9.8.5,1.4,1.1.3.2.6.3,1,.3,1.5-.1,2.9-.9,3.8-2.1.4-.6,1.1-.9,1.8-.9,2.2,0,4.5,3.2,8,3.1,2.2,0,4-1.6,4.2-3.8,0-.8-.3-1.6-.8-2.2ZM45,13.7v-2.7c.2-.3.3-.6.3-1,0-.6-.4-1.1-.9-1.4h-.6c-.5-.6-1.3-.8-2.1-.8-.5,0-1.1.1-1.6.3-.5-.2-1-.3-1.5-.3-.8,0-1.6.3-2.1.8h-.7c-.5.3-.9.8-.9,1.4,0,.4.1.7.3,1v2.7c-.3.3-.4.6-.4,1,0,.4.2.7.4,1v1.2h9.7v-1.2c.3-.2.4-.6.4-.9,0-.4-.2-.7-.4-1Z"/>
      <path class="st1" d="M19.4,14.7l.6.4c-.8,1.2-2.1,2-3.5,2.2-.5,0-1-.1-1-.2s0,0,0,0c1-.3,1.9-.8,2.6-1.5.1-.1.2-.3.3-.5,0-.1,0-.2-.2-.2,0,0,0,0,0,0-.1,0-.3,0-.3.2-.6.7-1.4,1.2-2.3,1.5-.2,0-.4.1-.6.1-.3,0-.5,0-.6-.3,0,0,0,0,0-.1,0-.3.8-.4.8-.9s-.5-.8-.5-1.7c0-1.7,2-4.2,2.3-4.5.6.4,1,1.1,1,1.8,0,.6-.2,1.3-.6,1.8h.1c.4-.5,1-.9,1.7-1,.3,0,.6.2.6.5,0,0,0,0,0,0,0,0,0,.2,0,.3,0,0,.1,0,.2,0,.3,0,.6.3.6.6,0,0,0,0,0,0,0,.7-1.3,1.4-1.3,1.4ZM16.7,14c-.2,0-.3.2-.3.4,0,.2,0,.3.2.5h0c.2,0,.8-.6.9-.7s0,0,0,0l-.8-.2ZM32.6,11.2h0c0,.9,1.1,1.3,1.1,2.8-.1,1.9-1.8,3.4-3.7,3.4-4.4,0-5-3.1-7.8-3.1-.6,0-1.2.2-1.8.5l-.3-.2c.5-.3.8-.8.8-1.3,0-.6-.4-1.1-.9-1.4.2-.2.4-.3.6-.3.5,0,.5.6,1,.6s.5-.2.8-.2.3.2.6.6c.4.6,1.3,0,1.5.7s.2.5.6.5.4.8.4.8h.4c0-.4-.1-.7-.3-.9-.2-.3-.7,0-.8-.7,0-.3-.3-.6-.7-.6h-.4c0,0-.3-.3-.4-.5s-.3-.5-.6-.5-.6.3-1,.3-.5-.8-1.2-.8c-.4,0-.8.3-1.1.7-.1,0-.3,0-.4,0-.2,0-.5,0-.7.1,0-.2,0-.4,0-.6,0-.4,0-.8-.2-1.2.8-.2,1.5-.3,2.3-.3,1.2,0,2.3.2,3.4.6,3.1,1.2,3.8,6.2,6,6.2,1.2.2,2.4-.7,2.6-2,0,0,0,0,0-.1,0-.6-.5-1.1-1-1.1,0,0-.1,0-.2,0-1,0-1.7,1.2-1.8,1.2s0,0,0,0c0-.2,0-.5,0-.7,0-1,.8-1.8,1.7-1.8,0,0,.2,0,.3,0v-.6c0-1.8.9-2.2,1.4-2.2s.5.1.5.2,0,0,0,0c-.5.6-.8,1.3-.8,2h0ZM39.9,14.6v-6c-.4-.2-.9-.2-1.3-.2-.6,0-1.3.2-1.7.6v5.7c.6-.2,1.2-.2,1.8-.2.4,0,.8,0,1.2.1h0ZM12.3,10.9c.4-.5.4-1.2,0-1.7,0,0-.1,0-.2-.1h-.3v6.2h-3l-.7.3-.7-.3h-3.1v-6.2h-.4c-.3.2-.5.6-.5.9,0,.3.1.6.3.9v3c-.2.2-.4.5-.4.8,0,.3.2.6.4.8v.9h8.7v-.9c.4-.3.6-.9.3-1.3,0-.1-.2-.2-.3-.3v-3ZM18.1,9.3c.9-.2,1.8-.4,2.8-.3,3.1-.2,6,1.8,7,4.8,0,.2.2.3.2.3s.1-.2.1-.4c0-.3-.2-.6-.5-.7,0-.1,0-.2,0-.3,0-.5-.3-.9-.8-.9,0,0,0-.2,0-.2,0-.5-.3-1-.8-1.1,0,0-.1,0-.2,0h-.2c0-.3-.2-.6-.5-.7,0,0,0,0-.1,0-.1,0-.2,0-.4,0,0,0,0-.9-.9-.9-.3,0-.5,0-.8.2-.1-.4-.4-.6-.8-.7-.3,0-.6.1-.9.3-.2-.3-.5-.5-.9-.6-.4,0-.8.2-1,.6-.2-.4-.5-.6-.9-.6-.4,0-.8.2-1.1.6.2.2.5.4.7.7h0ZM11.2,14.7v-5.7c-.4-.5-1.1-.7-1.7-.7-.4,0-.9,0-1.3.2v6c.4,0,.7-.1,1.1-.1.6,0,1.3.1,1.9.3h0ZM7.7,14.6v-6c-.4-.1-.9-.2-1.3-.2-.6,0-1.3.2-1.7.6v5.7c.6-.2,1.3-.2,1.9-.2.4,0,.7,0,1.1.1h0ZM44.5,10.9c.2-.3.3-.6.3-.9,0-.4-.2-.7-.5-.9h-.3v6.2h-2.9l-.8.3-.7-.3h-3.1v-6.2h-.4c-.3.2-.5.5-.5.9,0,.3.1.6.3.9v3c-.2.2-.4.5-.4.8,0,.3.2.6.4.8v.9h8.7v-.9c.3-.2.4-.5.4-.8,0-.3-.2-.6-.4-.8v-3ZM43.4,14.7v-5.7c-.4-.5-1.1-.7-1.7-.7-.4,0-.9,0-1.3.2v6c.4,0,.8-.1,1.2-.1.6,0,1.2.1,1.8.3h0ZM24,33.5c-1.8,0-3.2-1.4-3.2-3.2,0-1.8,1.4-3.2,3.2-3.2,1.8,0,3.2,1.4,3.2,3.2,0,0,0,0,0,0,0,1.8-1.4,3.2-3.2,3.2ZM34.5,36c-1.8,0-3.2,1.4-3.2,3.2,0,1.8,1.4,3.2,3.2,3.2,1.8,0,3.2-1.4,3.2-3.2,0,0,0,0,0,0,0-1.8-1.4-3.2-3.2-3.2,0,0,0,0,0,0ZM10.2,39.3c0,1.8,1.5,3.2,3.2,3.2s3.2-1.5,3.2-3.2c0-1.8-1.5-3.2-3.2-3.2-1.8,0-3.2,1.5-3.2,3.2,0,0,0,0,0,0ZM35.7,48.3l-11.7-11.2-11.7,11.2c3.4,3.3,7.4,5.9,11.7,7.9,4.3-2,8.3-4.6,11.7-7.9ZM42.8,38.7c1.9-3.7,2.9-7.8,3-11.9v-6.5H2.2v6.5c0,4.1,1.1,8.2,3,11.9l18.8-17.7,18.8,17.7Z"/>
    </g>
  </g>
</svg>